<?xml version="1.0" encoding="utf-8"?>
<!-- Generator: Adobe Illustrator 24.3.0, SVG Export Plug-In . SVG Version: 6.00 Build 0)  -->
<svg version="1.1" id="Ebene_1" xmlns="http://www.w3.org/2000/svg" xmlns:xlink="http://www.w3.org/1999/xlink" x="0px" y="0px"
	 viewBox="0 0 389.4 113.4" style="enable-background:new 0 0 389.4 113.4;" xml:space="preserve">
<style type="text/css">
	.st0{fill-rule:evenodd;clip-rule:evenodd;fill:#0A72CC;}
	.st1{fill:#0A72CC;}
</style>
<g>
	<path class="st0" d="M56.5,20.1c-21.5,0-39,17.5-39,39s17.5,39,39,39s39-17.5,39-39S78,20.1,56.5,20.1L56.5,20.1z M9.5,59.1
		c0-26,21-47,47-47s47,21,47,47s-21,47-47,47S9.5,85,9.5,59.1C9.5,59.1,9.5,59.1,9.5,59.1z"/>
	<g>
		<path class="st1" d="M126.4,73.4c-0.5,0-1-0.1-1.5-0.4c-0.4-0.2-0.7-0.6-0.7-1V45.5c0-0.5,0.2-0.8,0.7-1c0.4-0.2,0.9-0.3,1.5-0.3
			s1,0.1,1.5,0.3c0.4,0.2,0.7,0.6,0.7,1v11h10v-11c0-0.5,0.2-0.8,0.7-1c0.4-0.2,0.9-0.3,1.5-0.3c0.5,0,1,0.1,1.5,0.3
			c0.4,0.2,0.7,0.6,0.7,1V72c0,0.5-0.2,0.8-0.7,1c-0.4,0.2-0.9,0.4-1.5,0.4c-0.5,0-1-0.1-1.5-0.4c-0.4-0.2-0.7-0.6-0.7-1V59.9h-10
			V72c0,0.5-0.2,0.8-0.7,1C127.4,73.3,126.9,73.4,126.4,73.4z"/>
		<path class="st1" d="M156.5,73.4c-0.5,0-1-0.1-1.5-0.4c-0.4-0.2-0.7-0.6-0.7-1V48h-6.2c-0.4,0-0.8-0.2-1-0.6s-0.4-0.9-0.4-1.4
			c0-0.5,0.1-0.9,0.3-1.3c0.2-0.4,0.6-0.6,1-0.6h16.6c0.5,0,0.9,0.2,1.1,0.6c0.2,0.4,0.3,0.8,0.3,1.3c0,0.5-0.1,1-0.3,1.4
			s-0.6,0.6-1.1,0.6h-6.2v24c0,0.5-0.2,0.8-0.7,1C157.5,73.3,157,73.4,156.5,73.4z"/>
		<path class="st1" d="M186,73.5c-0.3,0-0.7-0.1-0.9-0.4s-0.5-0.5-0.7-0.9l-5.9-11.4h-4V72c0,0.5-0.2,0.8-0.7,1
			c-0.4,0.2-0.9,0.4-1.5,0.4s-1-0.1-1.5-0.4c-0.4-0.2-0.7-0.6-0.7-1V45.5c0-0.4,0.1-0.7,0.4-1c0.3-0.3,0.6-0.4,1.1-0.4h7.6
			c1.7,0,3.2,0.2,4.6,0.7c1.4,0.5,2.5,1.3,3.3,2.5c0.8,1.2,1.2,2.8,1.2,4.9c0,1.6-0.2,2.9-0.7,4c-0.5,1.1-1.2,1.9-2,2.5
			c-0.8,0.6-1.8,1.1-2.9,1.4l5.6,10.5c0.1,0.1,0.1,0.2,0.1,0.3c0,0.1,0,0.2,0,0.3c0,0.3-0.1,0.7-0.4,1c-0.3,0.3-0.6,0.6-1,0.8
			C186.8,73.4,186.4,73.5,186,73.5z M174.5,57.4h4.8c1.5,0,2.7-0.4,3.6-1.1c0.9-0.7,1.3-1.9,1.3-3.7c0-1.7-0.4-3-1.3-3.7
			c-0.9-0.7-2.1-1.1-3.6-1.1h-4.8V57.4z"/>
		<path class="st1" d="M202.9,73.4c-0.4,0-0.8-0.1-1.2-0.2s-0.8-0.4-1-0.6c-0.3-0.3-0.4-0.6-0.4-0.9c0-0.1,0-0.2,0-0.4l8-25.9
			c0.2-0.5,0.5-0.8,1-1.1c0.5-0.2,1.1-0.4,1.7-0.4c0.6,0,1.2,0.1,1.7,0.4c0.5,0.2,0.9,0.6,1,1.1l7.9,25.9c0.1,0.2,0.1,0.3,0.1,0.4
			c0,0.3-0.1,0.6-0.4,0.9s-0.6,0.5-1,0.6c-0.4,0.2-0.8,0.2-1.2,0.2c-0.3,0-0.6-0.1-0.9-0.2c-0.3-0.1-0.4-0.4-0.5-0.7l-1.6-5.7H206
			l-1.6,5.7c-0.1,0.3-0.3,0.5-0.5,0.7C203.5,73.3,203.2,73.4,202.9,73.4z M206.9,63.4h8l-4-13.7L206.9,63.4z"/>
		<path class="st1" d="M234.4,73.6c-1.6,0-3.1-0.3-4.4-0.9c-1.3-0.6-2.4-1.5-3.2-2.8c-0.8-1.3-1.2-3-1.2-5.2V53.1
			c0-2.2,0.4-3.9,1.2-5.2c0.8-1.3,1.9-2.3,3.2-2.8c1.4-0.6,2.8-0.9,4.4-0.9c1.8,0,3.4,0.3,4.8,0.9s2.4,1.5,3.2,2.6
			c0.8,1.1,1.1,2.3,1.1,3.7c0,0.9-0.2,1.5-0.5,1.8c-0.3,0.3-0.9,0.4-1.6,0.4c-0.6,0-1.1-0.1-1.5-0.3c-0.4-0.2-0.6-0.6-0.6-1.1
			c0-0.3-0.1-0.8-0.2-1.2s-0.3-1-0.6-1.4c-0.3-0.5-0.8-0.9-1.4-1.2c-0.6-0.3-1.5-0.5-2.5-0.5c-1.5,0-2.7,0.4-3.6,1.3
			c-0.8,0.8-1.2,2.1-1.2,3.9v11.6c0,1.8,0.4,3.1,1.3,3.9s2.1,1.3,3.7,1.3c1,0,1.8-0.2,2.4-0.5c0.6-0.3,1-0.7,1.3-1.2
			c0.3-0.5,0.5-1,0.6-1.5c0.1-0.5,0.2-1,0.2-1.4c0-0.5,0.2-0.9,0.6-1.1c0.4-0.2,0.9-0.3,1.5-0.3c0.7,0,1.3,0.1,1.6,0.4
			c0.3,0.3,0.5,0.9,0.5,1.8c0,1.4-0.4,2.7-1.1,3.9c-0.8,1.1-1.8,2-3.2,2.7S236.2,73.6,234.4,73.6z"/>
		<path class="st1" d="M255.9,73.4c-0.5,0-1-0.1-1.5-0.4c-0.4-0.2-0.7-0.6-0.7-1V48h-6.2c-0.4,0-0.8-0.2-1-0.6s-0.4-0.9-0.4-1.4
			c0-0.5,0.1-0.9,0.3-1.3c0.2-0.4,0.6-0.6,1-0.6h16.6c0.5,0,0.9,0.2,1.1,0.6c0.2,0.4,0.3,0.8,0.3,1.3c0,0.5-0.1,1-0.3,1.4
			s-0.6,0.6-1.1,0.6H258v24c0,0.5-0.2,0.8-0.7,1C256.9,73.3,256.5,73.4,255.9,73.4z"/>
		<path class="st1" d="M271.8,73.4c-0.5,0-1-0.1-1.5-0.4c-0.4-0.2-0.7-0.6-0.7-1V45.5c0-0.5,0.2-0.8,0.7-1c0.4-0.2,0.9-0.3,1.5-0.3
			s1,0.1,1.5,0.3c0.4,0.2,0.7,0.6,0.7,1V72c0,0.5-0.2,0.8-0.7,1C272.8,73.3,272.3,73.4,271.8,73.4z"/>
		<path class="st1" d="M288.8,73.6c-0.6,0-1.1-0.1-1.7-0.4c-0.5-0.2-0.9-0.6-1-1.1l-8-25.9c-0.1-0.2-0.1-0.3-0.1-0.4
			c0-0.3,0.1-0.6,0.4-0.9c0.3-0.3,0.6-0.5,1-0.6c0.4-0.2,0.8-0.2,1.2-0.2c0.4,0,0.7,0.1,1,0.2c0.3,0.1,0.4,0.4,0.5,0.7l6.6,22.8
			l6.6-22.8c0.1-0.3,0.3-0.5,0.6-0.7c0.3-0.1,0.6-0.2,0.9-0.2c0.4,0,0.8,0.1,1.2,0.2c0.4,0.2,0.7,0.4,1,0.6s0.4,0.6,0.4,0.9
			c0,0.1,0,0.1,0,0.2c0,0.1,0,0.1,0,0.2l-7.9,25.9c-0.2,0.5-0.5,0.8-1,1.1C289.9,73.5,289.4,73.6,288.8,73.6z"/>
		<path class="st1" d="M305.5,73.4c-0.5,0-0.9-0.1-1.3-0.4c-0.4-0.2-0.6-0.6-0.6-1V45.5c0-0.5,0.2-0.8,0.6-1
			c0.4-0.2,0.8-0.4,1.3-0.4h14.2c0.5,0,0.9,0.2,1.1,0.6c0.2,0.4,0.3,0.8,0.3,1.2c0,0.5-0.1,1-0.4,1.3c-0.2,0.4-0.6,0.6-1,0.6h-11.9
			v9.2h6.2c0.5,0,0.8,0.2,1,0.5s0.4,0.7,0.4,1.2c0,0.4-0.1,0.7-0.3,1.1c-0.2,0.4-0.6,0.5-1.1,0.5h-6.2v9.2h11.9c0.5,0,0.8,0.2,1,0.6
			c0.2,0.4,0.4,0.8,0.4,1.4c0,0.4-0.1,0.8-0.3,1.2c-0.2,0.4-0.6,0.6-1.1,0.6H305.5z"/>
	</g>
	<path class="st1" d="M75.5,43.3H37.4c-2.5,0-4.5,2-4.5,4.5v22.6c0,2.5,2,4.5,4.5,4.5h38.1c2.5,0,4.5-2,4.5-4.5V47.8
		C80,45.3,78,43.3,75.5,43.3z M61.7,49.9c0-0.6,0.5-1.1,1.1-1.1h2.9c0.6,0,1.1,0.5,1.1,1.1v2.9c0,0.6-0.5,1.1-1.1,1.1h-2.9
		c-0.6,0-1.1-0.5-1.1-1.1V49.9z M69.6,56.5c0.6,0,1.1,0.5,1.1,1.1v2.9c0,0.6-0.5,1.1-1.1,1.1h-2.9c-0.6,0-1.1-0.5-1.1-1.1v-2.9
		c0-0.6,0.5-1.1,1.1-1.1H69.6z M62.9,57.6v2.9c0,0.6-0.5,1.1-1.1,1.1h-2.9c-0.6,0-1.1-0.5-1.1-1.1v-2.9c0-0.6,0.5-1.1,1.1-1.1h2.9
		C62.5,56.5,62.9,57,62.9,57.6z M53.9,49.9c0-0.6,0.5-1.1,1.1-1.1h2.9c0.6,0,1.1,0.5,1.1,1.1v2.9c0,0.6-0.5,1.1-1.1,1.1H55
		c-0.6,0-1.1-0.5-1.1-1.1V49.9z M55,57.6v2.9c0,0.6-0.5,1.1-1.1,1.1H51c-0.6,0-1.1-0.5-1.1-1.1v-2.9c0-0.6,0.5-1.1,1.1-1.1H54
		C54.6,56.5,55,57,55,57.6z M46,49.9c0-0.6,0.5-1.1,1.1-1.1h2.9c0.6,0,1.1,0.5,1.1,1.1v2.9c0,0.6-0.5,1.1-1.1,1.1h-2.9
		c-0.6,0-1.1-0.5-1.1-1.1V49.9z M47.3,57.6v2.9c0,0.6-0.5,1.1-1.1,1.1h-2.9c-0.6,0-1.1-0.5-1.1-1.1v-2.9c0-0.6,0.5-1.1,1.1-1.1h2.9
		C46.8,56.5,47.3,57,47.3,57.6z M38.3,49.9c0-0.6,0.5-1.1,1.1-1.1h2.9c0.6,0,1.1,0.5,1.1,1.1v2.9c0,0.6-0.5,1.1-1.1,1.1h-2.9
		c-0.6,0-1.1-0.5-1.1-1.1V49.9z M43.4,68.3c0,0.6-0.5,1.1-1.1,1.1h-2.9c-0.6,0-1.1-0.5-1.1-1.1v-2.9c0-0.6,0.5-1.1,1.1-1.1h2.9
		c0.6,0,1.1,0.5,1.1,1.1V68.3z M67,68.3c0,0.6-0.5,1.1-1.1,1.1H47.1c-0.6,0-1.1-0.5-1.1-1.1v-2.9c0-0.6,0.5-1.1,1.1-1.1h18.8
		c0.6,0,1.1,0.5,1.1,1.1V68.3z M74.6,68.3c0,0.6-0.5,1.1-1.1,1.1h-2.9c-0.6,0-1.1-0.5-1.1-1.1v-2.9c0-0.6,0.5-1.1,1.1-1.1h2.9
		c0.6,0,1.1,0.5,1.1,1.1V68.3z M74.6,52.8c0,0.6-0.5,1.1-1.1,1.1h-2.9c-0.6,0-1.1-0.5-1.1-1.1v-2.9c0-0.6,0.5-1.1,1.1-1.1h2.9
		c0.6,0,1.1,0.5,1.1,1.1V52.8z"/>
</g>
</svg>
