<svg width="94" height="94" viewBox="0 0 94 94" fill="none" xmlns="http://www.w3.org/2000/svg">
<path d="M72.5354 36.2148C74.3908 34.3594 74.3908 31.332 72.5354 29.5742L66.676 23.7148C64.9182 21.8594 61.8908 21.8594 60.0354 23.7148L55.5432 28.207C55.1526 28.5977 55.1526 29.3789 55.5432 29.8672L66.383 40.707C66.8713 41.0977 67.6526 41.0977 68.0432 40.707L72.5354 36.2148ZM51.7346 32.0156L26.051 57.6992L24.0002 69.5156C23.7073 71.1758 25.0744 72.543 26.7346 72.25L38.551 70.1992L64.2346 44.5156C64.7229 44.125 64.7229 43.3438 64.2346 42.8555L53.3948 32.0156C52.9065 31.625 52.1252 31.625 51.7346 32.0156ZM36.1096 55.4531C35.5237 54.9648 35.5237 54.0859 36.1096 53.5977L51.1487 38.5586C51.6369 37.9727 52.5158 37.9727 53.0041 38.5586C53.5901 39.0469 53.5901 39.9258 53.0041 40.4141L37.9651 55.4531C37.4768 56.0391 36.5979 56.0391 36.1096 55.4531ZM32.594 63.6562H37.2815V67.2695L30.9338 68.3438L27.9065 65.3164L28.9807 58.9688H32.594V63.6562Z" fill="#0A72CC"/>
<path fill-rule="evenodd" clip-rule="evenodd" d="M47 8C25.4609 8 8 25.4609 8 47C8 68.5391 25.4609 86 47 86C68.5391 86 86 68.5391 86 47C86 25.4609 68.5391 8 47 8ZM0 47C0 21.0426 21.0426 0 47 0C72.9574 0 94 21.0426 94 47C94 72.9574 72.9574 94 47 94C21.0426 94 0 72.9574 0 47Z" fill="#0A72CC"/>
</svg>
