<svg id="Ebene_1" data-name="Ebene 1" xmlns="http://www.w3.org/2000/svg" viewBox="0 0 352.19 94"><defs><style>.cls-1,.cls-2{fill:#0a72cc;}.cls-2{fill-rule:evenodd;}</style></defs><path class="cls-1" d="M74.66,37.82a4.65,4.65,0,0,0,0-6.64L68.8,25.32a4.67,4.67,0,0,0-6.64,0l-4.49,4.49a1.32,1.32,0,0,0,0,1.66L68.51,42.31a1.3,1.3,0,0,0,1.66,0Zm-20.8-4.2L28.18,59.31,26.13,71.12a2.32,2.32,0,0,0,2.73,2.74l11.82-2L66.36,46.12a1.12,1.12,0,0,0,0-1.66L55.52,33.62A1.32,1.32,0,0,0,53.86,33.62ZM38.24,57.06a1.19,1.19,0,0,1,0-1.85l15-15A1.31,1.31,0,0,1,55.13,42l-15,15A1.19,1.19,0,0,1,38.24,57.06Zm-3.52,8.2h4.69v3.62L33.06,70l-3-3,1.08-6.34h3.61Z" transform="translate(-2.13 -1.61)"/><path class="cls-2" d="M49.13,9.61a39,39,0,1,0,39,39A39,39,0,0,0,49.13,9.61Zm-47,39a47,47,0,1,1,47,47A47,47,0,0,1,2.13,48.61Z" transform="translate(-2.13 -1.61)"/><path class="cls-1" d="M119.11,43.57a13,13,0,0,1-4.35-.7,9,9,0,0,1-3.07-1.76A3,3,0,0,1,110.56,39a2.71,2.71,0,0,1,.28-1.13,2.91,2.91,0,0,1,.76-1,1.56,1.56,0,0,1,1.07-.43,1.67,1.67,0,0,1,1.11.43c.35.28.74.61,1.19,1a6.11,6.11,0,0,0,1.62,1,5.74,5.74,0,0,0,2.37.43,6,6,0,0,0,2.06-.35,3.54,3.54,0,0,0,1.51-1.06,2.77,2.77,0,0,0,.58-1.81,3.19,3.19,0,0,0-.63-2,5.36,5.36,0,0,0-1.71-1.4c-.71-.4-1.49-.78-2.33-1.15s-1.68-.77-2.53-1.18a11.54,11.54,0,0,1-2.33-1.52,6.66,6.66,0,0,1-1.7-2.18,7,7,0,0,1-.65-3.19,6.93,6.93,0,0,1,.79-3.47,6.6,6.6,0,0,1,2.11-2.28A9.25,9.25,0,0,1,117,16.39a13.31,13.31,0,0,1,3.18-.39c.57,0,1.24.05,2,.13a14,14,0,0,1,2.33.47,5.9,5.9,0,0,1,1.92.9,1.75,1.75,0,0,1,.76,1.46,3.43,3.43,0,0,1-.2,1,3,3,0,0,1-.63,1.05,1.43,1.43,0,0,1-1.09.47,2.17,2.17,0,0,1-1.17-.36,10.43,10.43,0,0,0-1.48-.7,7.09,7.09,0,0,0-2.46-.35,6.71,6.71,0,0,0-2.26.35,3.25,3.25,0,0,0-1.44,1A2.42,2.42,0,0,0,116,23a2.23,2.23,0,0,0,.65,1.63,6.07,6.07,0,0,0,1.7,1.18c.7.35,1.47.69,2.31,1a25.11,25.11,0,0,1,2.53,1.2,11.81,11.81,0,0,1,2.35,1.65A6.82,6.82,0,0,1,127.29,32a8.66,8.66,0,0,1,.63,3.5A8.1,8.1,0,0,1,126.77,40a7.15,7.15,0,0,1-3.13,2.7A10.68,10.68,0,0,1,119.11,43.57Z" transform="translate(-2.13 -1.61)"/><path class="cls-1" d="M138.65,43.24a3.52,3.52,0,0,1-1.67-.39,1.23,1.23,0,0,1-.74-1.13V20.52H130.8a1.24,1.24,0,0,1-1.11-.67,2.86,2.86,0,0,1-.41-1.52,3.13,3.13,0,0,1,.37-1.46,1.23,1.23,0,0,1,1.15-.68h15.65a1.23,1.23,0,0,1,1.17.68,3.24,3.24,0,0,1,.35,1.46,2.94,2.94,0,0,1-.39,1.52,1.22,1.22,0,0,1-1.13.67h-5.4v21.2a1.22,1.22,0,0,1-.76,1.13A3.51,3.51,0,0,1,138.65,43.24Z" transform="translate(-2.13 -1.61)"/><path class="cls-1" d="M149.41,43.24A4,4,0,0,1,148,43a3.54,3.54,0,0,1-1.18-.71,1.36,1.36,0,0,1-.48-1,2.21,2.21,0,0,1,0-.37l7.14-23.28a2,2,0,0,1,1.16-1.22,5,5,0,0,1,3.91,0,2,2,0,0,1,1.14,1.22l7.14,23.28a1.55,1.55,0,0,1,.08.37,1.35,1.35,0,0,1-.5,1,3.82,3.82,0,0,1-1.2.73,4,4,0,0,1-1.37.26,2.26,2.26,0,0,1-1-.21,1,1,0,0,1-.57-.76l-1.41-4.92h-8.51L151,42.27a1.09,1.09,0,0,1-.59.76A2.41,2.41,0,0,1,149.41,43.24Zm4-9.66h6.43l-3.22-11.36Z" transform="translate(-2.13 -1.61)"/><path class="cls-1" d="M184.34,43.42a1.69,1.69,0,0,1-.94-.3,2,2,0,0,1-.73-.85l-5.25-10.21h-3.11v9.66a1.22,1.22,0,0,1-.74,1.13,3.51,3.51,0,0,1-1.66.39,3.58,3.58,0,0,1-1.65-.39,1.24,1.24,0,0,1-.76-1.13v-24a1.44,1.44,0,0,1,.43-1,1.51,1.51,0,0,1,1.13-.44h7.32a13.1,13.1,0,0,1,4.42.7A6.43,6.43,0,0,1,186,19.28a8,8,0,0,1,1.18,4.64,9.43,9.43,0,0,1-.63,3.65A6.15,6.15,0,0,1,184.8,30a7.17,7.17,0,0,1-2.49,1.35l4.88,9a1.73,1.73,0,0,1,.11.32,1.76,1.76,0,0,1,0,.27,2,2,0,0,1-.45,1.19,3.42,3.42,0,0,1-1.13,1A2.9,2.9,0,0,1,184.34,43.42Zm-10-15.13h4.07a4.42,4.42,0,0,0,2.89-.89,3.75,3.75,0,0,0,1.07-3,3.81,3.81,0,0,0-1.07-3.09,4.47,4.47,0,0,0-2.89-.87h-4.07Z" transform="translate(-2.13 -1.61)"/><path class="cls-1" d="M197.66,43.24a3.48,3.48,0,0,1-1.66-.39,1.22,1.22,0,0,1-.74-1.13V20.52h-5.44a1.24,1.24,0,0,1-1.11-.67,2.86,2.86,0,0,1-.41-1.52,3,3,0,0,1,.37-1.46,1.23,1.23,0,0,1,1.15-.68h15.65a1.21,1.21,0,0,1,1.16.68,3.11,3.11,0,0,1,.35,1.46,2.93,2.93,0,0,1-.38,1.52,1.23,1.23,0,0,1-1.13.67h-5.41v21.2a1.23,1.23,0,0,1-.75,1.13A3.58,3.58,0,0,1,197.66,43.24Z" transform="translate(-2.13 -1.61)"/><path class="cls-1" d="M119.37,81.23a3.66,3.66,0,0,1-1.67-.38,1.23,1.23,0,0,1-.74-1.13V58.52h-5.44a1.26,1.26,0,0,1-1.11-.67,2.85,2.85,0,0,1-.4-1.52,3,3,0,0,1,.37-1.46,1.22,1.22,0,0,1,1.14-.68h15.66a1.21,1.21,0,0,1,1.16.68,3.24,3.24,0,0,1,.35,1.46,2.94,2.94,0,0,1-.39,1.52,1.22,1.22,0,0,1-1.12.67h-5.41v21.2a1.23,1.23,0,0,1-.75,1.13A3.7,3.7,0,0,1,119.37,81.23Z" transform="translate(-2.13 -1.61)"/><path class="cls-1" d="M146.08,81.42a1.71,1.71,0,0,1-.94-.3,1.89,1.89,0,0,1-.72-.85l-5.26-10.21h-3.1v9.66a1.23,1.23,0,0,1-.75,1.13,3.59,3.59,0,0,1-1.66.38,3.7,3.7,0,0,1-1.65-.38,1.24,1.24,0,0,1-.76-1.13v-24a1.48,1.48,0,0,1,.43-1,1.51,1.51,0,0,1,1.13-.44h7.32a13.16,13.16,0,0,1,4.43.7,6.4,6.4,0,0,1,3.16,2.39,8,8,0,0,1,1.18,4.64,9.63,9.63,0,0,1-.62,3.65,6.17,6.17,0,0,1-1.73,2.4,7.25,7.25,0,0,1-2.49,1.35l4.88,9a1.21,1.21,0,0,1,.11.32,1,1,0,0,1,0,.27,2,2,0,0,1-.44,1.19,3.63,3.63,0,0,1-1.13,1A3,3,0,0,1,146.08,81.42Zm-10-15.13h4.06A4.4,4.4,0,0,0,143,65.4a3.73,3.73,0,0,0,1.07-3A3.75,3.75,0,0,0,143,59.28a4.45,4.45,0,0,0-2.89-.87h-4.06Z" transform="translate(-2.13 -1.61)"/><path class="cls-1" d="M153.41,81.23A4,4,0,0,1,152,81a3.54,3.54,0,0,1-1.18-.71,1.33,1.33,0,0,1-.49-1c0-.08,0-.2,0-.37l7.14-23.28a2,2,0,0,1,1.17-1.22,5,5,0,0,1,3.9,0,2,2,0,0,1,1.15,1.22l7.14,23.28a1.41,1.41,0,0,1,.07.37,1.32,1.32,0,0,1-.5,1,3.61,3.61,0,0,1-1.2.73,4,4,0,0,1-1.37.25,2.32,2.32,0,0,1-1-.2,1.09,1.09,0,0,1-.57-.76l-1.41-4.92H156.4L155,80.27a1.08,1.08,0,0,1-.6.76A2.37,2.37,0,0,1,153.41,81.23Zm4-9.65h6.44l-3.22-11.36Z" transform="translate(-2.13 -1.61)"/><path class="cls-1" d="M175.9,81.23a3.63,3.63,0,0,1-1.64-.38,1.22,1.22,0,0,1-.76-1.13v-24a1.21,1.21,0,0,1,.76-1.15,3.62,3.62,0,0,1,1.64-.37,5,5,0,0,1,1.47.18,2.67,2.67,0,0,1,1.07.72,7.39,7.39,0,0,1,1.05,1.65l7.14,13.8V55.67a1.18,1.18,0,0,1,.76-1.13,4,4,0,0,1,1.65-.35,3.88,3.88,0,0,1,1.66.35,1.16,1.16,0,0,1,.74,1.13v24a1.22,1.22,0,0,1-.74,1.13,3.62,3.62,0,0,1-1.66.38,3.71,3.71,0,0,1-1.57-.33,2.48,2.48,0,0,1-1.17-1.18l-8-14.88V79.72a1.23,1.23,0,0,1-.74,1.13A3.66,3.66,0,0,1,175.9,81.23Z" transform="translate(-2.13 -1.61)"/><path class="cls-1" d="M203.13,81.57a12.62,12.62,0,0,1-4.34-.71,8.7,8.7,0,0,1-3.07-1.75A3,3,0,0,1,194.59,77a2.81,2.81,0,0,1,.27-1.13,3.18,3.18,0,0,1,.76-1,1.6,1.6,0,0,1,1.08-.42,1.75,1.75,0,0,1,1.11.42l1.18,1a6.34,6.34,0,0,0,1.63,1,5.74,5.74,0,0,0,2.37.43,5.92,5.92,0,0,0,2-.35,3.57,3.57,0,0,0,1.52-1.06,2.78,2.78,0,0,0,.57-1.81,3.17,3.17,0,0,0-.63-2,5.32,5.32,0,0,0-1.7-1.4c-.72-.4-1.49-.78-2.33-1.15s-1.68-.77-2.54-1.19a11.35,11.35,0,0,1-2.33-1.51,6.79,6.79,0,0,1-1.7-2.18,7.14,7.14,0,0,1-.65-3.19,6.93,6.93,0,0,1,.8-3.47,6.51,6.51,0,0,1,2.11-2.28,9.09,9.09,0,0,1,2.9-1.26,13.31,13.31,0,0,1,3.18-.39c.57,0,1.24,0,2,.13a13.75,13.75,0,0,1,2.33.47,5.86,5.86,0,0,1,1.93.9,1.76,1.76,0,0,1,.75,1.46,3.15,3.15,0,0,1-.2,1,2.76,2.76,0,0,1-.63,1,1.41,1.41,0,0,1-1.09.47,2.16,2.16,0,0,1-1.16-.36,11,11,0,0,0-1.48-.7,7.16,7.16,0,0,0-2.47-.35,6.65,6.65,0,0,0-2.25.35,3.29,3.29,0,0,0-1.45,1,2.42,2.42,0,0,0-.48,1.54,2.27,2.27,0,0,0,.65,1.63,6.07,6.07,0,0,0,1.7,1.18c.71.35,1.48.69,2.32,1a26.18,26.18,0,0,1,2.53,1.2,12.42,12.42,0,0,1,2.35,1.65,6.93,6.93,0,0,1,1.7,2.38,8.66,8.66,0,0,1,.63,3.5A8,8,0,0,1,210.79,78a7.07,7.07,0,0,1-3.12,2.7A10.7,10.7,0,0,1,203.13,81.57Z" transform="translate(-2.13 -1.61)"/><path class="cls-1" d="M223.48,81.46a10.67,10.67,0,0,1-4.25-.84,6.57,6.57,0,0,1-3.11-2.7A9.38,9.38,0,0,1,215,73V62.66a9.41,9.41,0,0,1,1.15-4.94,6.68,6.68,0,0,1,3.11-2.7,11,11,0,0,1,4.29-.83,11.26,11.26,0,0,1,4.57.87,7.39,7.39,0,0,1,3.11,2.42,6.21,6.21,0,0,1,1.13,3.74,2.31,2.31,0,0,1-.6,1.9,2.88,2.88,0,0,1-1.81.47,3.57,3.57,0,0,1-1.68-.36,1.26,1.26,0,0,1-.72-1.16,5.73,5.73,0,0,0-.13-1.06,4.09,4.09,0,0,0-.5-1.2,2.93,2.93,0,0,0-1.13-1,4.49,4.49,0,0,0-2.09-.4,3.83,3.83,0,0,0-2.9,1.05,4.44,4.44,0,0,0-1,3.2V73a4.39,4.39,0,0,0,1,3.22,4,4,0,0,0,3,1,4.17,4.17,0,0,0,2-.41,2.7,2.7,0,0,0,1.09-1,3.78,3.78,0,0,0,.48-1.27c.09-.45.16-.86.21-1.26a1.33,1.33,0,0,1,.74-1.18,3.48,3.48,0,0,1,1.63-.34,2.89,2.89,0,0,1,1.84.48,2.34,2.34,0,0,1,.6,1.89A6.79,6.79,0,0,1,231.2,78a7.2,7.2,0,0,1-3.13,2.55A11.22,11.22,0,0,1,223.48,81.46Z" transform="translate(-2.13 -1.61)"/><path class="cls-1" d="M250.46,81.42a1.74,1.74,0,0,1-1-.3,2,2,0,0,1-.72-.85l-5.25-10.21h-3.11v9.66a1.23,1.23,0,0,1-.74,1.13,3.79,3.79,0,0,1-3.31,0,1.22,1.22,0,0,1-.76-1.13v-24a1.44,1.44,0,0,1,.43-1,1.51,1.51,0,0,1,1.13-.44h7.32a13.1,13.1,0,0,1,4.42.7,6.43,6.43,0,0,1,3.17,2.39,8,8,0,0,1,1.18,4.64,9.43,9.43,0,0,1-.63,3.65,6.15,6.15,0,0,1-1.72,2.4,7.29,7.29,0,0,1-2.5,1.35l4.89,9a1.73,1.73,0,0,1,.11.32,1.57,1.57,0,0,1,0,.27,2,2,0,0,1-.44,1.19,3.42,3.42,0,0,1-1.13,1A2.9,2.9,0,0,1,250.46,81.42Zm-10-15.13h4.07a4.42,4.42,0,0,0,2.89-.89,3.76,3.76,0,0,0,1.07-3,3.78,3.78,0,0,0-1.07-3.08,4.47,4.47,0,0,0-2.89-.87h-4.07Z" transform="translate(-2.13 -1.61)"/><path class="cls-1" d="M259,81.23a3.63,3.63,0,0,1-1.64-.38,1.22,1.22,0,0,1-.76-1.13v-24a1.17,1.17,0,0,1,.76-1.13,4.09,4.09,0,0,1,3.31,0,1.18,1.18,0,0,1,.74,1.13v24a1.23,1.23,0,0,1-.74,1.13A3.66,3.66,0,0,1,259,81.23Z" transform="translate(-2.13 -1.61)"/><path class="cls-1" d="M268.33,81.23a3.7,3.7,0,0,1-1.65-.38,1.24,1.24,0,0,1-.76-1.13v-24a1.36,1.36,0,0,1,.52-1,2,2,0,0,1,1.33-.44h7.4a10.85,10.85,0,0,1,4.28.81,6.44,6.44,0,0,1,3,2.65,9.3,9.3,0,0,1,1.11,4.86v.22a9.12,9.12,0,0,1-1.15,4.89,6.57,6.57,0,0,1-3.12,2.68,11.23,11.23,0,0,1-4.42.83h-4.15v8.59a1.22,1.22,0,0,1-.74,1.13A3.62,3.62,0,0,1,268.33,81.23Zm2.4-13.87h4.15a3.8,3.8,0,0,0,2.86-1,4.47,4.47,0,0,0,1-3.21v-.44a4.44,4.44,0,0,0-1-3.2,3.8,3.8,0,0,0-2.86-1.05h-4.15Z" transform="translate(-2.13 -1.61)"/><path class="cls-1" d="M294,81.23a3.66,3.66,0,0,1-1.67-.38,1.23,1.23,0,0,1-.74-1.13V58.52h-5.44a1.23,1.23,0,0,1-1.1-.67,2.77,2.77,0,0,1-.41-1.52,3,3,0,0,1,.37-1.46,1.22,1.22,0,0,1,1.14-.68h15.66a1.21,1.21,0,0,1,1.16.68,3.11,3.11,0,0,1,.35,1.46,2.94,2.94,0,0,1-.39,1.52,1.21,1.21,0,0,1-1.12.67h-5.41v21.2a1.23,1.23,0,0,1-.75,1.13A3.7,3.7,0,0,1,294,81.23Z" transform="translate(-2.13 -1.61)"/><path class="cls-1" d="M308.25,81.23a3.7,3.7,0,0,1-1.65-.38,1.23,1.23,0,0,1-.75-1.13v-24a1.17,1.17,0,0,1,.75-1.13,4,4,0,0,1,1.65-.35,3.93,3.93,0,0,1,1.67.35,1.18,1.18,0,0,1,.74,1.13v24a1.23,1.23,0,0,1-.74,1.13A3.66,3.66,0,0,1,308.25,81.23Z" transform="translate(-2.13 -1.61)"/><path class="cls-1" d="M323.53,81.46a11.06,11.06,0,0,1-4.4-.84,6.53,6.53,0,0,1-3.11-2.7A9.38,9.38,0,0,1,314.87,73V62.66A9.41,9.41,0,0,1,316,57.72a6.63,6.63,0,0,1,3.09-2.7,11.2,11.2,0,0,1,4.42-.83A11.38,11.38,0,0,1,328,55a6.68,6.68,0,0,1,3.13,2.7,9.41,9.41,0,0,1,1.15,4.94V73a9.38,9.38,0,0,1-1.15,4.94,6.57,6.57,0,0,1-3.13,2.7A11.2,11.2,0,0,1,323.53,81.46Zm0-4.22a3.85,3.85,0,0,0,2.85-1,4.39,4.39,0,0,0,1-3.22V62.66a4.4,4.4,0,0,0-1-3.22,4.46,4.46,0,0,0-5.7,0,4.4,4.4,0,0,0-1,3.22V73a4.39,4.39,0,0,0,1,3.22A3.85,3.85,0,0,0,323.53,77.24Z" transform="translate(-2.13 -1.61)"/><path class="cls-1" d="M338.77,81.23a3.63,3.63,0,0,1-1.64-.38,1.22,1.22,0,0,1-.76-1.13v-24a1.21,1.21,0,0,1,.76-1.15,3.62,3.62,0,0,1,1.64-.37,5,5,0,0,1,1.47.18,2.67,2.67,0,0,1,1.07.72,7.39,7.39,0,0,1,1.05,1.65l7.15,13.8V55.67a1.17,1.17,0,0,1,.75-1.13,4,4,0,0,1,1.65-.35,3.85,3.85,0,0,1,1.66.35,1.16,1.16,0,0,1,.74,1.13v24a1.22,1.22,0,0,1-.74,1.13,3.59,3.59,0,0,1-1.66.38,3.71,3.71,0,0,1-1.57-.33,2.52,2.52,0,0,1-1.17-1.18l-8-14.88V79.72a1.23,1.23,0,0,1-.74,1.13A3.63,3.63,0,0,1,338.77,81.23Z" transform="translate(-2.13 -1.61)"/></svg>