<?xml version="1.0" encoding="UTF-8" standalone="no"?>
<!-- Generator: Adobe Illustrator 23.0.2, SVG Export Plug-In . SVG Version: 6.00 Build 0)  -->

<svg
   xmlns:dc="http://purl.org/dc/elements/1.1/"
   xmlns:cc="http://creativecommons.org/ns#"
   xmlns:rdf="http://www.w3.org/1999/02/22-rdf-syntax-ns#"
   xmlns:svg="http://www.w3.org/2000/svg"
   xmlns="http://www.w3.org/2000/svg"
   xmlns:sodipodi="http://sodipodi.sourceforge.net/DTD/sodipodi-0.dtd"
   xmlns:inkscape="http://www.inkscape.org/namespaces/inkscape"
   version="1.1"
   id="Layer_1"
   x="0px"
   y="0px"
   viewBox="0 0 22.500001 20.000001"
   xml:space="preserve"
   sodipodi:docname="EuropeanaLogo.svg"
   inkscape:version="0.92.4 (5da689c313, 2019-01-14)"
   width="22.5"
   height="20"><metadata
   id="metadata4667"><rdf:RDF><cc:Work
       rdf:about=""><dc:format>image/svg+xml</dc:format><dc:type
         rdf:resource="http://purl.org/dc/dcmitype/StillImage" /><dc:title /></cc:Work></rdf:RDF></metadata><defs
   id="defs4665" /><sodipodi:namedview
   pagecolor="#505050"
   bordercolor="#eeeeee"
   borderopacity="1"
   objecttolerance="10"
   gridtolerance="10"
   guidetolerance="10"
   inkscape:pageopacity="0"
   inkscape:pageshadow="2"
   inkscape:window-width="1920"
   inkscape:window-height="1027"
   id="namedview4663"
   showgrid="false"
   inkscape:zoom="4.12"
   inkscape:cx="115.25824"
   inkscape:cy="75.489798"
   inkscape:window-x="-8"
   inkscape:window-y="-8"
   inkscape:window-maximized="1"
   inkscape:current-layer="Layer_1"
   showguides="true" />
<style
   type="text/css"
   id="style4638">
	.st0{fill:#6B6B6B;}
</style>
<path
   class="st0"
   d="m 18.231759,5.811435 h 0.02739 -0.02739 M 5.4040243,11.97777 c 2.0196861,0 3.6572697,1.197347 3.6572697,2.674085 0,1.476726 -1.6375836,2.674071 -3.6572697,2.674071 -2.0196855,0 -3.6572684,-1.197345 -3.6572684,-2.674071 0,-1.476738 1.6375829,-2.674085 3.6572684,-2.674085 m 2.647424,5.986735 c 0,-0.758316 0.8460846,-1.376946 1.8832263,-1.376946 1.0371304,0 1.8832234,0.61863 1.8832234,1.376946 0,0.758335 -0.846093,1.376961 -1.8832234,1.376961 -1.0371417,0 -1.8832263,-0.618626 -1.8832263,-1.376961 M 22.489472,7.048702 C 22.462082,6.869099 22.434752,6.689493 22.434752,6.509888 22.380062,6.37019 22.352762,6.150686 22.325583,6.030947 22.243603,5.871302 22.243603,5.811435 22.21641,5.691701 22.16169,5.571959 22.16169,5.571959 22.079944,5.312537 21.888898,4.813648 21.588674,4.31475 21.261155,3.835814 21.04281,3.536476 20.769882,3.277051 20.49695,3.017625 20.44227,2.957745 20.278609,2.818062 20.224014,2.778149 20.114849,2.678369 19.514399,2.159519 19.32335,2.039785 19.132359,1.92005 18.968598,1.800313 18.750263,1.680582 18.559206,1.56085 18.340862,1.44111 18.14981,1.341332 17.986052,1.241552 17.795001,1.20165 17.631243,1.121821 16.703278,0.70274897 15.666149,0.36349897 14.601715,0.18389997 11.026323,-0.41477403 6.8231944,0.46328297 4.5032847,2.59855 4.2576475,2.818062 4.01201,3.037576 3.7663722,3.277051 3.6572001,3.376831 3.6026144,3.516512 3.4934424,3.636251 3.2750975,3.895677 3.1113389,4.135146 2.9475809,4.414525 2.2925481,5.472185 1.8831516,6.769302 2.019617,7.986618 c 0.081876,0.678485 0.2456377,1.356996 0.5731551,1.995571 0.1091712,0.199563 0.19105,0.399114 0.3275156,0.598685 0.081876,0.139678 0.3002239,0.419066 0.3275168,0.45898 C 1.3373595,11.658487 0,13.055388 0,14.691758 c 0,2.195146 2.4563752,3.99116 5.4586102,3.99116 0.6550338,0 1.2827736,-0.07981 1.855928,-0.239462 0,0.01989 0.027307,0.01989 0.027307,0.03988 C 7.6420672,19.34144 8.7064929,20 9.9892581,20 c 1.5011139,0 2.7293089,-0.898035 2.7293089,-1.995591 0,-0.957885 -0.900669,-1.756123 -2.128861,-1.955676 0,-0.0199 0.02739,-0.0399 0.02739,-0.05987 0.02738,-0.07983 0.08201,-0.159643 0.109173,-0.23947 0.05474,-0.09978 0.08202,-0.199564 0.10917,-0.319301 0,-0.05987 0.02739,-0.119739 0.02739,-0.199556 0.02739,-0.07982 0.02739,-0.15965 0.02739,-0.239462 0.02739,-0.01989 0.05472,0 0.109176,0 0.600445,0.01989 1.200894,0.09978 1.801346,0.05986 1.119009,-0.03988 2.319904,-0.199547 3.329752,-0.538806 1.064428,-0.339251 2.101562,-0.778268 2.974941,-1.356995 0.409393,-0.259421 0.818792,-0.558755 1.146306,-0.898007 0.163761,-0.159649 0.354811,-0.29933 0.491273,-0.458984 0.109172,-0.139685 0.27293,-0.279387 0.382107,-0.419066 0.082,-0.09979 0.082,-0.159647 0.16375,-0.259423 0.05474,-0.05987 0.109182,-0.119742 0.136472,-0.19957 0.08201,-0.139683 0.109174,-0.299333 0.109174,-0.458982 0.02739,-0.299339 -0.109174,-0.618626 -0.354811,-0.878046 -0.191049,-0.219524 -0.655032,-0.419071 -1.009843,-0.498901 -0.409398,-0.07983 -0.900671,-0.05988 -1.310069,0.03989 -0.436685,0.119732 -0.73691,0.399118 -0.982547,0.698448 -0.272932,0.319296 -0.518566,0.618626 -0.873379,0.878052 -0.682323,0.498902 -1.419238,0.89802 -2.319909,1.157441 C 11.244937,12.875723 7.2601544,11.498778 6.1138463,8.924476 5.5952781,7.727123 5.7317434,6.390093 6.5778279,5.272568 7.014517,4.693844 7.6149634,4.175001 8.3245831,3.755922 8.7066808,3.536418 9.1433688,3.336849 9.5800556,3.197165 9.9894548,3.077438 10.39884,2.997609 10.808247,2.897834 c 0.32751,-0.07983 0.764201,-0.09979 1.091712,-0.119743 0.35481,-0.01989 0.736914,-0.01989 1.091728,0.0199 0.73691,0.07982 1.501121,0.219514 2.183442,0.458985 0.354809,0.139688 0.764206,0.319288 1.091721,0.518846 0.327514,0.199566 0.682329,0.439027 0.955255,0.678502 0.218347,0.199551 0.327522,0.339248 0.545859,0.538807 0.218353,0.239466 0.518576,0.498891 0.545863,0.798232 -0.846081,0 -1.719463,0 -2.56554,0 -0.818791,0 -1.719466,-0.139698 -2.483673,0.139687 -0.791493,0.29934 -1.419233,1.137483 -0.900671,1.756114 0.24564,0.299333 0.354812,0.538806 0.818797,0.698451 0.463978,0.159644 0.846081,0.179602 1.364646,0.179602 1.173602,-0.01988 2.3472,0 3.520808,0 h 1.828627 c 0.518572,0 1.037136,0.0199 1.528418,-0.119741 0.736912,-0.179602 1.146306,-0.758312 1.06443,-1.396897"
   id="path4640"
   inkscape:connector-curvature="0"
   style="fill:#000000;fill-opacity:1;stroke-width:0.23337847" />

</svg>