<svg id="Layer_1" data-name="Layer 1" xmlns="http://www.w3.org/2000/svg" viewBox="0 0 296.42 356.23"><defs><style>.cls-1{fill:#231f20;}</style></defs><path class="cls-1" d="M297.84,142.75c-.21-3.25-.62-6.43-.74-9.7-.59-2.38-1-6.3-1.59-8.41-.89-2.92-.92-4-1.5-6s-.67-2-1.94-6.73c-2.4-8.9-6.56-17.81-10.85-26.18-2.79-5.46-6.36-9.86-9.79-14.65-.75-1-2.77-3.43-3.38-4.33-1.28-1.9-9.29-11.11-11.82-13.18s-4.74-4.44-7.34-6.46-5.29-4.16-8-6.19c-2.22-1.67-4.52-2.6-6.76-4a132.61,132.61,0,0,0-39.66-16.63c-46.65-10.84-101.36,5-131.65,43.25-3.17,4-11.93,16.18-13.17,18.21a121.32,121.32,0,0,0-7.26,13.77c-8.57,19-13.72,41.87-12.09,63.74a134.81,134.81,0,0,0,7.39,35.63c1.3,3.54,2.5,7.14,4.14,10.54,1.13,2.33,4.05,7.64,4.3,8.1a71.13,71.13,0,1,0,53.09,132,3.51,3.51,0,0,0,.37.72,35.69,35.69,0,1,0,42.48-43.57c.1-.38.22-.77.32-1.15.49-1.45.92-2.91,1.32-4.4a41.76,41.76,0,0,0,1.41-5.63c.16-1,.3-2.27.41-3.49.18-1.38.32-2.76.42-4.16.35-.22.83,0,1.52,0,7.78.33,15.52,1.61,23.33,1.2,14.54-.77,30.17-3.66,43.55-9.57a154.12,154.12,0,0,0,38.76-24.06,102.63,102.63,0,0,0,14.94-15.89c2.09-2.8,4.52-5.17,6.42-8.14,1.6-2.52,3.4-4.87,4.81-7.51,1-1.86,1.23-2.72,2.2-4.58a20.6,20.6,0,0,0,3.26-11.7A26.76,26.76,0,0,0,280.17,188c-2.62-3.89-8.48-7.58-13.1-8.85a27.44,27.44,0,0,0-16.9.85c-5.79,2.26-9.77,7.23-12.85,12.43-3.42,5.79-6.65,11-11.45,15.78-8.88,8.89-18.53,16-30.23,20.75-44.79,18.26-96.91-6.54-111.7-52.42a83.24,83.24,0,0,1,6-65.16,89.32,89.32,0,0,1,22.71-27,73.77,73.77,0,0,1,16.4-10.11c5.23-2.2,10.53-3.41,15.89-5.23,4.2-1.43,9.85-1.8,14.34-2.14a60.64,60.64,0,0,1,14.31.3c9.6,1.59,19.54,3.78,28.3,8.26a91.41,91.41,0,0,1,14.29,9.22A74.39,74.39,0,0,1,228.5,96.87c2.73,3.51,4.42,6.09,7,9.82,2.68,4.23,6.68,8.82,7,14.17-11.09,0-22.42.08-33.53.08-10.78,0-22.38-2.39-32.42,2.63C166.11,128.78,158.17,144,164.64,155c3.14,5.33,4.73,9.58,10.66,12.52s11.19,3.38,17.67,3.23c15.32-.34,30.7,0,46,0h23.88c6.79,0,13.34.41,19.78-2.06,10.81-4.16,16-14.69,15.24-25.92M109.61,337.58a24.71,24.71,0,1,1,24.71,24.71h0a24.7,24.7,0,0,1-24.7-24.7h0M75,230.81a47.72,47.72,0,1,1-47.72,47.72h0A47.73,47.73,0,0,1,75,230.8m167.1-110h0" transform="translate(-1.52 -16.95)"/></svg>