<?xml version="1.0" encoding="utf-8"?>
<!-- Generator: Adobe Illustrator 25.0.0, SVG Export Plug-In . SVG Version: 6.00 Build 0)  -->
<svg version="1.1" id="Ebene_1" xmlns="http://www.w3.org/2000/svg" xmlns:xlink="http://www.w3.org/1999/xlink" x="0px" y="0px"
	 viewBox="0 0 1920 1080" style="enable-background:new 0 0 1920 1080;" xml:space="preserve">
<style type="text/css">
	.st0{fill:#193060;}
	.st1{fill:#8E855F;}
</style>
<g>
	<path class="st0" d="M107,100v880h1373v-19H126V119h1668v842h-191v19h209V100H107z"/>
	<g>
		<g>
			<path class="st0" d="M1193.1,630.9C1193.1,630.9,1193,630.8,1193.1,630.9c-3.9-23.5-8.1-46.9-11.3-70.4
				c-1.6-11.9-6-10.6-26.5-10.6c-45.5,0-92.9-0.6-141.8-0.6c-13.9,0-19.3,0-23.9,8.8c-13.1,24.6-27.2,48.7-40.1,73.4
				c-117.7-0.2-235.3-0.2-353-0.2c-38.1,0-76.2-0.4-114.3,0.3c-10.4,0.2-16-2.5-20.6-12.5c-15.5-33.4-32.3-66.3-48.7-99.4
				c-3-6-6.4-11.9-9.6-17.8c-16.4-30.7-42.1-45.2-76.9-44c-9.8,0.3-19.7,0-30.9,0v172.6H179.3V173.2l0,0c3.4-0.2,6.9-0.7,10.3-0.7
				c58.3,0,116.7-1,175,0.4c26.8,0.6,54,3.5,80.1,9.5c61.2,14.1,91.3,55.4,90.2,118.2c-1,54.6-25.3,93-77.2,112.5
				c-1.8,0.7-3.6,1.5-5.4,2.4c-0.3,0.2-0.6,0.5-0.9,0.8c0.1,0.8,0.1,2,0.4,2.2c32.6,11.5,52.3,36.6,67.3,65.6
				c20.6,39.8,40.1,80.2,60.1,120.3c3.8,7.7,7.7,15.3,13.9,22.5V173.4h319.5v86.9H712v88.6h187.6V437H712v106.5l0,0
				c4.5,0,8.7,0,12.9,0c47.2,0,94.5-0.3,141.7,0.2c9.3,0.1,14-3.2,18.4-11c65.6-116.5,131.5-232.8,197.1-349.3
				c4.7-8.4,9.9-11.3,19.5-11.2c40,0.5,80.1,0.2,121.9,0.2l0,0c27.4,154.1,54.7,308,82,461.8V174.8l0,0c2.2-1.3,2.9-2,3.5-2
				c78.9,0.1,158-4,236.6,6.5c84.4,11.3,147.8,52.7,178.3,134.3c22.9,61.3,22.1,124.6-3.2,185c-31.2,74.6-91.4,113.9-169.9,124.9
				c-34.5,4.8-69.5,6.9-104.3,7.4c-80.9,1.1-161.9,0.4-242.9,0.4C1200.4,631.3,1197.3,631.1,1193.1,630.9z M1424.4,260.9v282.4
				c33.3,0.3,65.8,2,97.6-6.4c47-12.5,77.7-41.4,89.5-88.9c7.7-31.3,7.5-62.8-0.5-94.2c-10.7-41.8-37-69.2-77.5-83.1
				C1498.3,258.5,1461.8,260.2,1424.4,260.9z M295.9,378.1c27.5-1.5,54.1-1.3,80.2-4.7c24.2-3.1,37.1-18,40.3-41.9
				c1.4-10.4,1.2-21.4-0.3-31.7c-2.9-20.3-19.2-36.2-39.5-38.7c-26.4-3.3-53.2-3.5-80.7-5.2L295.9,378.1L295.9,378.1z M1039.7,464.8
				h124.6l0,0c-9.1-57.8-18-114.7-26.9-171.7c-0.2-1-0.9-1.7-1.9-1.9l0,0c-1-0.2-1.9,0.3-2.4,1.2
				C1102.3,349.2,1071.5,406,1039.7,464.8L1039.7,464.8z"/>
		</g>
		<path class="st1" d="M234.2,894.1c-17.3-9.2-30.7-21.9-40.4-38.3c-9.7-16.3-14.5-34.8-14.5-55.5s4.8-39.1,14.5-55.3
			s23.1-28.9,40.2-38.1c17.1-9.2,36.7-13.7,58.7-13.7c20.7,0,38.8,4.2,54.3,12.6c15.6,8.4,27.3,20.4,35.1,36.1l-37.7,22
			c-6-9.7-13.5-16.9-22.6-21.8c-9-4.8-18.9-7.3-29.6-7.3c-18.3,0-33.5,6-45.5,17.9s-18,27.8-18,47.7s5.9,35.8,17.8,47.7
			s27.1,17.9,45.7,17.9c10.7,0,20.6-2.4,29.6-7.3c9-4.8,16.5-12.1,22.6-21.8l37.7,22c-8.1,15.7-19.9,27.8-35.5,36.3
			S313.1,908,292.7,908C271,907.9,251.5,903.3,234.2,894.1z"/>
		<path class="st1" d="M592.9,894.1c-17-9.2-30.3-21.9-39.8-38.3c-9.6-16.3-14.3-34.8-14.3-55.5s4.8-39.1,14.3-55.3
			s22.8-28.9,39.8-38.1c17-9.2,36.1-13.7,57.3-13.7c21.4,0,40.7,4.6,57.7,13.7c17,9.2,30.3,21.8,39.8,38.1
			c9.5,16.2,14.3,34.7,14.3,55.3c0,20.7-4.8,39.2-14.3,55.5c-9.6,16.3-22.8,29.1-39.8,38.3s-36.2,13.7-57.7,13.7
			C629,907.9,609.9,903.3,592.9,894.1z M694.9,847.8c11.8-12,17.7-27.9,17.7-47.5s-5.9-35.4-17.7-47.5c-11.8-12-26.7-18-44.7-18
			s-32.9,6-44.5,18s-17.5,27.9-17.5,47.5s5.8,35.4,17.5,47.5c11.6,12,26.5,18,44.5,18S683.1,859.9,694.9,847.8z"/>
		<path class="st1" d="M1192.3,894.1c-17-9.2-30.3-21.9-39.8-38.3c-9.6-16.3-14.3-34.8-14.3-55.5s4.8-39.1,14.3-55.3
			s22.8-28.9,39.8-38.1c17-9.2,36.1-13.7,57.3-13.7c21.4,0,40.7,4.6,57.7,13.7c17,9.2,30.3,21.8,39.8,38.1
			c9.5,16.2,14.3,34.7,14.3,55.3c0,20.7-4.8,39.2-14.3,55.5c-9.6,16.3-22.8,29.1-39.8,38.3s-36.2,13.7-57.7,13.7
			C1228.3,907.9,1209.3,903.3,1192.3,894.1z M1294.3,847.8c11.8-12,17.7-27.9,17.7-47.5s-5.9-35.4-17.7-47.5
			c-11.8-12-26.7-18-44.7-18s-32.9,6-44.5,18s-17.5,27.9-17.5,47.5s5.8,35.4,17.5,47.5c11.6,12,26.5,18,44.5,18
			S1282.5,859.9,1294.3,847.8z"/>
		<path class="st1" d="M1688.8,706.6c16.1,8.9,28.7,21.4,37.9,37.7c9.2,16.2,13.7,34.9,13.7,56.1c0,21.2-4.6,40-13.7,56.3
			c-9.2,16.3-21.8,29-37.9,37.9s-34.3,13.3-54.7,13.3c-28.2,0-50.6-9.4-67.1-28.2V980h-49V695.6h46.7v27.5
			c8.1-9.9,18.1-17.4,30-22.4s25-7.5,39.4-7.5C1654.5,693.3,1672.7,697.7,1688.8,706.6z M1673.1,847.8c11.6-12,17.5-27.9,17.5-47.5
			s-5.8-35.4-17.5-47.5c-11.6-12-26.5-18-44.5-18c-11.8,0-22.4,2.7-31.8,8c-9.4,5.4-16.9,13-22.4,22.9s-8.2,21.4-8.2,34.5
			s2.7,24.6,8.2,34.5s12.9,17.6,22.4,23c9.4,5.4,20,8,31.8,8C1646.6,865.9,1661.5,859.9,1673.1,847.8z"/>
		<g>
			<path class="st1" d="M932,818.8c-5-4.8-7.5-10.9-7.5-18.3c0-7.6,2.4-13.7,7.3-18.4c4.9-4.7,10.9-7.1,18.2-7.1
				c7.2,0,13.3,2.4,18.2,7.1c4.9,4.7,7.3,10.8,7.3,18.4c0,7.4-2.5,13.5-7.5,18.3s-11,7.2-18,7.2S937,823.6,932,818.8z"/>
		</g>
	</g>
</g>
</svg>
