<?xml version="1.0" encoding="utf-8"?>
<!-- Generator: Adobe Illustrator 25.0.1, SVG Export Plug-In . SVG Version: 6.00 Build 0)  -->
<svg version="1.1" id="Ebene_1" xmlns="http://www.w3.org/2000/svg" xmlns:xlink="http://www.w3.org/1999/xlink" x="0px" y="0px"
	 viewBox="0 0 1842 414" style="enable-background:new 0 0 1842 414;" xml:space="preserve">
<style type="text/css">
	.st0{fill:#193060;}
</style>
<g>
	<path class="st0" d="M90.45,158.23c7.97,6.64,19.02,9.95,33.16,9.95c-0.89-1.12-2.01-2.41-3.35-3.88
		c-1.34-1.46-2.67-3.59-4.01-6.41c-1.34-2.81-2.51-6.47-3.51-10.97c-1-4.5-1.5-10.46-1.5-17.88c0-8.1,0.79-15.4,2.36-21.93
		c1.57-6.52,4.38-11.98,8.44-16.37c4.05-4.39,9.45-7.76,16.2-10.12c6.75-2.36,15.18-3.54,25.31-3.54h3.38v243.6h48.59V83.83
		c9.67,2.02,19.01,3.77,28.01,5.23c9,1.47,17.09,2.19,24.29,2.19c12.82,0,21.99-2.64,27.5-7.93c5.51-5.28,8.27-12.99,8.27-23.11
		c0-3.38-0.34-7.31-1.01-11.81c-4.27,1.8-9.62,3.43-16.03,4.89c-6.41,1.47-14.34,2.19-23.79,2.19c-6.98,0-13.61-0.39-19.91-1.18
		c-6.3-0.79-12.65-1.69-19.06-2.7s-13.26-1.91-20.55-2.7c-7.3-0.78-15.43-1.18-24.41-1.18c-18.4,0-33.94,1.91-46.62,5.74
		c-12.68,3.83-23,9.11-30.97,15.86c-7.96,6.75-13.74,14.73-17.33,23.96c-3.59,9.23-5.38,19.12-5.38,29.69
		C78.5,139.84,82.48,151.6,90.45,158.23z"/>
	<path class="st0" d="M262.06,151.97v168.71h48.59V192.46c3.59-3.82,7.03-7.03,10.29-9.61c3.26-2.58,6.58-3.88,9.95-3.88
		c3.15,0,5.34,1.13,6.58,3.38c1.23,2.25,2.41,4.67,3.54,7.25c1.12,2.59,2.7,5.01,4.72,7.25c2.02,2.25,5.62,3.38,10.8,3.38
		c6.97,0,11.98-2.08,15.01-6.24c3.04-4.16,4.56-8.72,4.56-13.67c0-3.59-0.73-7.14-2.19-10.63c-1.47-3.49-3.49-6.69-6.07-9.62
		c-2.59-2.92-5.63-5.28-9.11-7.09c-3.49-1.8-7.37-2.7-11.64-2.7c-7.2,0-13.84,2.31-19.91,6.92c-6.07,4.61-11.59,9.84-16.53,15.69
		v-20.92H262.06z"/>
	<path class="st0" d="M479.36,151.97v16.2c-1.35-4.05-3.26-7.26-5.74-9.62c-2.48-2.36-5.18-4.16-8.1-5.4
		c-2.93-1.23-5.96-2.02-9.11-2.36c-3.15-0.34-6.07-0.51-8.77-0.51c-11.7,0-21.65,2.98-29.86,8.94
		c-8.21,5.96-14.85,13.56-19.91,22.78c-5.06,9.23-8.77,19.35-11.14,30.37c-2.36,11.02-3.54,21.71-3.54,32.05
		c0,14.63,1.74,26.94,5.23,36.95c3.49,10.01,8.1,18.05,13.84,24.13c5.74,6.07,12.09,10.46,19.06,13.16
		c6.97,2.7,14.06,4.05,21.26,4.05c6.07,0,11.42-0.9,16.03-2.7c4.61-1.8,8.66-4.16,12.15-7.09c3.48-2.92,6.46-6.24,8.94-9.95
		c2.47-3.71,4.61-7.48,6.41-11.3c2.47,9.68,6.8,17.27,12.99,22.78c6.18,5.51,15.24,8.27,27.16,8.27c4.5,0,9.67-0.67,15.52-2.02
		c5.85-1.35,11.58-4.22,17.21-8.6c2.59-2.02,5.06-4.47,7.42-7.31v15.92H615V212.37c0.22-3.82,0.79-7.59,1.69-11.3
		c0.89-3.71,2.13-7.03,3.71-9.95c1.57-2.92,3.54-5.28,5.9-7.09c2.36-1.8,5.23-2.7,8.61-2.7c5.62,0,9.95,2.87,12.99,8.6
		c3.04,5.74,4.56,15.35,4.56,28.85c0,2.25-0.06,5.23-0.17,8.94c-0.12,3.71-0.17,7.59-0.17,11.64c0,4.05-0.06,7.93-0.17,11.64
		c-0.12,3.71-0.17,6.58-0.17,8.61c0,19.12,3.91,34.42,11.73,45.89c7.82,11.47,20.44,17.21,37.88,17.21c4.95,0,10.01-0.73,15.18-2.19
		c5.17-1.46,10.01-4.39,14.51-8.77c2.91-2.84,5.63-6.49,8.16-10.93c1.41,1.8,2.95,3.53,4.65,5.19c4.95,4.84,11.14,8.83,18.56,11.98
		c7.42,3.15,16.08,4.72,25.98,4.72c8.1,0,16.53-1.46,25.31-4.38c8.77-2.92,16.08-7.87,21.93-14.85
		c6.75-4.72,14.06-10.46,21.93-17.21c2.75-2.36,5.45-4.97,8.09-7.8v42.22h48.59v-75.25c1.8-5.62,4.55-10.4,8.27-14.34
		c3.71-3.93,9.05-5.91,16.03-5.91c7.2,0,11.86,2.36,14,7.09c2.13,4.72,3.21,11.02,3.21,18.9c0,4.05-0.12,8.55-0.34,13.5
		c-0.23,4.95-0.34,8.77-0.34,11.47c0,6.3,0.96,12.26,2.87,17.88c1.91,5.63,4.83,10.58,8.77,14.85c3.93,4.27,8.94,7.65,15.02,10.12
		c6.07,2.47,13.38,3.71,21.93,3.71c5.4,0,10.8-0.73,16.2-2.19c5.4-1.46,10.34-4.44,14.85-8.94c2.01-2.01,3.92-4.42,5.73-7.18v16.29
		h48.59V192.46c3.59-3.82,7.03-7.03,10.29-9.61c3.26-2.58,6.58-3.88,9.95-3.88c3.15,0,5.34,1.13,6.58,3.38
		c1.23,2.25,2.41,4.67,3.54,7.25c1.12,2.59,2.7,5.01,4.72,7.25c2.02,2.25,5.62,3.38,10.8,3.38c6.97,0,11.98-2.08,15.01-6.24
		c3.04-4.16,4.56-8.72,4.56-13.67c0-3.59-0.73-7.14-2.19-10.63c-1.47-3.49-3.49-6.69-6.07-9.62c-2.59-2.92-5.63-5.28-9.11-7.09
		c-3.49-1.8-7.37-2.7-11.64-2.7c-7.2,0-13.83,2.31-19.91,6.92c-6.07,4.61-11.59,9.84-16.53,15.69v-20.92h-48.59v108.33
		c-1.13,5.17-2.19,9.61-3.2,13.32c-1.01,3.71-2.36,6.75-4.05,9.11c-1.69,2.36-3.77,4.17-6.24,5.4c-2.48,1.24-5.74,1.85-9.78,1.85
		c-6.53,0-10.91-1.46-13.16-4.38c-2.25-2.92-3.38-6.75-3.38-11.47c0-1.57,0.05-3.71,0.17-6.41c0.11-2.7,0.28-5.57,0.51-8.61
		c0.22-3.04,0.39-6.07,0.51-9.11c0.11-3.04,0.17-5.57,0.17-7.59c0-8.32-1.35-15.3-4.05-20.92c-2.7-5.62-6.24-10.18-10.63-13.67
		c-4.38-3.48-9.51-5.96-15.35-7.42c-5.85-1.46-11.93-2.19-18.22-2.19c-1.58,0-3.1,0-4.55,0c-1.47,0-2.98,0.12-4.56,0.34l57.36-46.57
		h-33.4l-54.33,51.29V84.48l-48.59,6.75v169.05c-5.62,5.62-12.48,11.25-20.58,16.87v-2.02c0-8.32-0.45-15.86-1.35-22.61
		c-0.9-6.75-2.48-14.68-4.72-23.79c-2.25-9.11-5.29-20.47-9.11-34.08c-3.83-13.61-8.55-31.32-14.17-53.14l-48.59,6.75
		c-1.8,16.65-4.89,33.24-9.28,49.77c-4.39,16.53-9.84,33.24-16.37,50.11c-3.6,1.8-6.58,4.84-8.94,9.11
		c-2.36,4.27-3.54,9.45-3.54,15.52c0,2.76,0.33,5.6,0.98,8.52c-0.04,0.08-0.09,0.17-0.13,0.26c-3.04,5.63-8.38,8.44-16.03,8.44
		c-6.97,0-11.47-2.41-13.5-7.25c-2.02-4.83-3.04-12.09-3.04-21.76c0-2.92,0.05-6.52,0.17-10.8c0.11-4.27,0.28-8.66,0.51-13.16
		c0.22-4.5,0.39-8.94,0.51-13.33c0.11-4.38,0.17-8.04,0.17-10.97c0-11.69-1.25-21.54-3.74-29.52c-2.49-7.98-5.95-14.39-10.37-19.23
		c-4.42-4.84-9.52-8.27-15.29-10.29s-11.84-3.04-18.18-3.04c-5.83,0-11.99,1.18-18.5,3.54c-6.5,2.36-12.33,7.48-17.48,15.35
		L615,151.97h-48.59V273.6c-1.19,2.9-2.69,5.56-4.55,7.93c-4.39,5.63-9.84,8.44-16.37,8.44c-6.53,0-11.08-1.52-13.67-4.55
		c-2.59-3.04-3.88-9.28-3.88-18.73V151.97H479.36z M479.36,260.28c0,4.95-0.67,9.28-2.02,12.99c-1.35,3.71-3.1,6.81-5.23,9.28
		c-2.14,2.48-4.5,4.33-7.08,5.57c-2.59,1.24-5.12,1.85-7.59,1.85c-2.02,0-4.5-0.28-7.42-0.84c-2.93-0.56-5.68-2.36-8.27-5.4
		c-2.59-3.04-4.78-7.87-6.58-14.51c-1.8-6.63-2.7-15.91-2.7-27.84c0-7.42,0.56-15.24,1.69-23.45c1.12-8.21,2.87-15.74,5.23-22.61
		c2.36-6.86,5.51-12.59,9.45-17.21c3.93-4.61,8.61-6.92,14-6.92c2.7,0,5.06,0.51,7.08,1.52s3.71,2.25,5.06,3.71
		c1.35,1.47,2.36,2.93,3.04,4.39c0.68,1.46,1.12,2.65,1.35,3.54V260.28z M748.76,275.03c0.62,0.41,1.31,0.72,2.05,0.94
		c1.91,0.56,3.77,0.84,5.57,0.84c3.82,0,6.75-1.4,8.77-4.22c2.02-2.81,3.04-5.9,3.04-9.28c0-3.6-0.96-6.58-2.87-8.94
		c-1.91-2.36-4.11-4.1-6.58-5.23c3.6-10.8,7.03-21.2,10.29-31.21c3.26-10.01,6.02-20.41,8.27-31.21c3.38,12.6,6.24,23.06,8.61,31.38
		c2.36,8.33,4.27,15.52,5.74,21.6c1.46,6.07,2.53,11.53,3.21,16.37c0.68,4.84,1.01,10.29,1.01,16.37c0,8.77-2.36,14.9-7.09,18.39
		c-4.72,3.49-10.35,5.23-16.87,5.23c-7.42,0-13.11-1.97-17.04-5.91c-2.87-2.86-5.16-6.78-6.89-11.73
		C748.24,277.32,748.5,276.19,748.76,275.03z"/>
	<path class="st0" d="M1190.3,80.1c-7.42,0-13.72,2.65-18.9,7.93c-5.18,5.29-7.76,11.64-7.76,19.06c0,7.42,2.58,13.72,7.76,18.9
		c5.17,5.18,11.47,7.76,18.9,7.76s13.78-2.58,19.06-7.76c5.28-5.17,7.93-11.47,7.93-18.9c0-7.42-2.65-13.78-7.93-19.06
		C1204.07,82.74,1197.72,80.1,1190.3,80.1z"/>
	<path class="st0" d="M1167.35,151.97V270.4c0,15.75,3.49,28.4,10.46,37.96c6.97,9.56,19.12,14.34,36.44,14.34
		c4.5,0,9.67-0.67,15.52-2.02c5.85-1.35,11.58-4.22,17.21-8.6c5.34-4.17,10.17-10.08,14.5-17.7c2.24,5.33,5.33,10.05,9.29,14.16
		c9.11,9.45,23.22,14.17,42.35,14.17c15.07,0,27.39-2.92,36.95-8.77c9.56-5.85,17.09-13.33,22.61-22.44
		c5.51-9.11,9.28-19.12,11.3-30.03c2.02-10.91,3.04-21.31,3.04-31.21c0-12.82-1.35-24.24-4.05-34.25
		c-2.7-10.01-6.47-18.39-11.3-25.14c-4.84-6.75-10.58-11.86-17.21-15.35c-6.64-3.49-14-5.23-22.1-5.23c-3.83,0-7.65,0.62-11.47,1.86
		c-3.83,1.24-8.77,4-14.85,8.27l-0.34-75.92l-48.25,6.75l-0.32,172.03c-0.98,7.23-3.4,13.32-7.27,18.28
		c-4.38,5.63-9.84,8.44-16.37,8.44c-6.53,0-11.08-1.52-13.67-4.55c-2.59-3.04-3.88-9.28-3.88-18.73V151.97H1167.35z M1305.69,180.98
		c1.81-2.02,4.53-3.54,8.16-4.55c3.63-1.01,6.8-1.52,9.52-1.52c8.84,0,15.86,5.18,21.07,15.52c5.21,10.35,7.82,24.63,7.82,42.85
		c0,6.53-0.45,13.11-1.36,19.74c-0.91,6.64-2.44,12.71-4.59,18.22c-2.15,5.51-5.16,10.01-9.01,13.5c-3.85,3.49-8.72,5.23-14.61,5.23
		c-4.99,0-9.06-1.52-12.24-4.55c-3.18-3.04-4.76-8.15-4.76-15.35V180.98z"/>
	<path class="st0" d="M1407.25,151.97V270.4c0,15.97,3.54,28.68,10.63,38.13c7.08,9.45,18.61,14.17,34.59,14.17
		c3.38,0,7.09-0.34,11.14-1.01c4.05-0.67,8.1-2.13,12.15-4.38c4.05-2.25,7.98-5.45,11.81-9.62c3.82-4.16,7.08-9.84,9.78-17.04
		c2.25,10.12,6.46,18,12.65,23.62c6.19,5.63,15.35,8.44,27.5,8.44c4.72,0,10.01-0.67,15.86-2.02c5.85-1.35,11.58-4.22,17.21-8.6
		c3.56-2.78,6.9-6.33,10.01-10.65c1.28,1.58,2.65,3.1,4.16,4.57c4.95,4.84,11.14,8.83,18.56,11.98c7.42,3.15,16.08,4.72,25.98,4.72
		c6.07,0,12.48-0.84,19.23-2.53c6.75-1.69,12.87-4.38,18.39-8.1c5.51-3.71,10.06-8.61,13.67-14.68c3.59-6.07,5.4-13.5,5.4-22.27
		c0-8.32-0.45-15.86-1.35-22.61c-0.9-6.75-2.48-14.68-4.72-23.79c-2.25-9.11-5.29-20.47-9.11-34.08
		c-3.83-13.61-8.55-31.32-14.17-53.14l-48.59,6.75c-1.8,16.65-4.89,33.24-9.28,49.77c-4.39,16.53-9.84,33.24-16.37,50.11
		c-3.6,1.8-6.58,4.84-8.94,9.11c-2.36,4.27-3.54,9.45-3.54,15.52c0,3.6,0.56,7.32,1.66,11.17c-3.92,4.02-9.42,6.04-16.5,6.04
		c-5.85,0-9.9-1.74-12.15-5.23c-2.25-3.48-3.38-9.5-3.38-18.05V151.97h-48.59v108.31c0,8.55-2.02,15.64-6.07,21.26
		c-4.05,5.63-9.11,8.44-15.18,8.44c-4.5,0-7.93-1.74-10.29-5.23c-2.36-3.48-3.54-9.5-3.54-18.05V151.97H1407.25z M1592.21,276.11
		c1.71,0.46,3.39,0.7,5.01,0.7c3.82,0,6.75-1.4,8.77-4.22c2.02-2.81,3.04-5.9,3.04-9.28c0-3.6-0.96-6.58-2.87-8.94
		c-1.91-2.36-4.11-4.1-6.58-5.23c3.6-10.8,7.03-21.2,10.29-31.21c3.26-10.01,6.02-20.41,8.27-31.21c3.38,12.6,6.24,23.06,8.61,31.38
		c2.36,8.33,4.27,15.52,5.74,21.6c1.46,6.07,2.53,11.53,3.21,16.37c0.68,4.84,1.01,10.29,1.01,16.37c0,8.77-2.36,14.9-7.09,18.39
		c-4.72,3.49-10.35,5.23-16.87,5.23c-7.42,0-13.11-1.97-17.04-5.91c-2.07-2.06-3.83-4.69-5.31-7.84
		C1591.05,280.34,1591.65,278.28,1592.21,276.11z"/>
	<polygon class="st0" points="318.19,43.34 318.19,62.62 1744.22,62.62 1744.22,351.38 99.01,351.38 99.01,174.64 79.73,174.64 
		79.73,370.66 99.01,370.66 1763.45,370.66 1763.45,370.41 1763.5,370.41 1763.5,62.62 1763.5,43.48 1763.5,43.34 	"/>
</g>
<g>
	<g>
		<path class="st0" d="M1686.18,134c-14.67,0-26.6-11.93-26.6-26.6s11.93-26.6,26.6-26.6c14.67,0,26.6,11.93,26.6,26.6
			S1700.85,134,1686.18,134z M1686.18,86.21c-11.69,0-21.2,9.51-21.2,21.2s9.51,21.2,21.2,21.2c11.69,0,21.2-9.51,21.2-21.2
			S1697.87,86.21,1686.18,86.21z"/>
	</g>
	<g>
		<path class="st0" d="M1684.73,105.24c1.48,0,2.57-0.3,3.21-0.86c0.65-0.54,1-1.46,1-2.75c0-1.27-0.35-2.16-1-2.73
			c-0.65-0.54-1.73-0.81-3.21-0.81h-3.02v7.16H1684.73 M1681.7,110.18v10.53h-7.18V92.88h10.96c3.67,0,6.35,0.62,8.05,1.86
			c1.73,1.22,2.57,3.16,2.57,5.83c0,1.84-0.43,3.35-1.32,4.54c-0.89,1.16-2.21,2.05-4.02,2.59c1,0.24,1.86,0.76,2.65,1.54
			s1.57,1.97,2.35,3.59l3.92,7.88h-7.64l-3.4-6.91c-0.68-1.38-1.38-2.35-2.08-2.84c-0.7-0.51-1.65-0.78-2.81-0.78H1681.7"/>
	</g>
</g>
</svg>
