<svg id="Ebene_1" data-name="Ebene 1" xmlns="http://www.w3.org/2000/svg" viewBox="0 0 12.55 14.33"><path d="M12,1.87H11V.29a.2.2,0,0,0-.2-.19H9.4a.2.2,0,0,0-.2.19V1.87H5.6V.29A.2.2,0,0,0,5.4.1H4a.2.2,0,0,0-.2.19V1.87H2.88A1.72,1.72,0,0,0,1.16,3.59v9.12a1.72,1.72,0,0,0,1.72,1.71H12a1.72,1.72,0,0,0,1.72-1.71V3.59A1.72,1.72,0,0,0,12,1.87Zm.29,10.84A.3.3,0,0,1,12,13H2.88a.3.3,0,0,1-.29-.29V4.47h9.69Z" transform="translate(-1.16 -0.1)"/><path d="M8,6.66a.16.16,0,0,0-.22,0L4.67,9.78a.2.2,0,0,0,0,.08l-.29,1.22a.36.36,0,0,0,.43.43L6,11.22l.07,0L9.19,8.06a.16.16,0,0,0,0-.22Z" transform="translate(-1.16 -0.1)"/><path d="M9.68,5.54a.54.54,0,0,0-.76,0l-.52.52a.23.23,0,0,0,0,.34l1,1.06a.25.25,0,0,0,.34,0l.53-.53a.54.54,0,0,0,0-.76Z" transform="translate(-1.16 -0.1)"/></svg>