<?xml version="1.0" encoding="utf-8"?>
<!-- Generator: Adobe Illustrator 26.0.1, SVG Export Plug-In . SVG Version: 6.00 Build 0)  -->
<svg version="1.1" id="Ebene_1" xmlns="http://www.w3.org/2000/svg" xmlns:xlink="http://www.w3.org/1999/xlink" x="0px" y="0px"
	 viewBox="0 0 30 30" style="enable-background:new 0 0 30 30;" xml:space="preserve">
<style type="text/css">
	.st0{fill:none;stroke:#000000;stroke-width:1.5;stroke-miterlimit:10;}
</style>
<path class="st0" d="M24.5,27h-19c-2.2,0-4-1.6-4-3.6V6.7c0-2,1.8-3.6,4-3.6h18.9c2.2,0,4,1.6,4,3.6v16.7C28.5,25.3,26.7,27,24.5,27
	z"/>
<g>
	<path d="M4.6,19.3v-8.7h6.3v1.9H6.9V14h3.6v1.9H6.9v1.5h3.9v1.9H4.6z"/>
	<path d="M18.1,14.9h-2.2c0-0.1-0.1-0.2-0.1-0.3c-0.1-0.1-0.2-0.2-0.3-0.2c-0.1-0.1-0.3-0.1-0.4-0.1c-0.2,0-0.4,0-0.5,0.1
		c-0.1,0.1-0.2,0.2-0.2,0.3c0,0.1,0,0.2,0.1,0.3c0.1,0.1,0.3,0.1,0.5,0.2l1.3,0.2c0.7,0.1,1.2,0.3,1.5,0.6c0.3,0.3,0.5,0.7,0.5,1.2
		c0,0.5-0.1,0.9-0.4,1.2c-0.3,0.3-0.6,0.6-1.1,0.8c-0.5,0.2-1,0.3-1.6,0.3c-1,0-1.8-0.2-2.3-0.6c-0.6-0.4-0.9-0.9-0.9-1.6h2.3
		c0,0.2,0.1,0.4,0.3,0.5s0.4,0.2,0.7,0.2c0.2,0,0.4,0,0.5-0.1c0.1-0.1,0.2-0.2,0.2-0.3c0-0.1-0.1-0.2-0.2-0.3
		c-0.1-0.1-0.3-0.1-0.6-0.2l-1.2-0.2c-0.7-0.1-1.2-0.3-1.5-0.7c-0.3-0.3-0.5-0.7-0.5-1.3c0-0.5,0.1-0.8,0.4-1.2
		c0.2-0.3,0.6-0.6,1-0.7s1-0.2,1.6-0.2c0.9,0,1.7,0.2,2.2,0.6S18,14.2,18.1,14.9z"/>
	<path d="M22.3,19.4c-0.7,0-1.3-0.1-1.8-0.4c-0.5-0.3-0.9-0.7-1.2-1.2c-0.3-0.5-0.4-1.1-0.4-1.8s0.1-1.3,0.4-1.8
		c0.3-0.5,0.7-0.9,1.2-1.2c0.5-0.3,1.1-0.4,1.8-0.4c0.6,0,1.2,0.1,1.7,0.3c0.5,0.2,0.8,0.6,1.1,1c0.3,0.4,0.4,0.9,0.4,1.5h-2.2
		c0-0.3-0.1-0.6-0.3-0.8c-0.2-0.2-0.4-0.3-0.6-0.3c-0.2,0-0.4,0.1-0.5,0.2c-0.2,0.1-0.3,0.3-0.4,0.5c-0.1,0.2-0.1,0.5-0.1,0.9
		c0,0.4,0,0.7,0.1,0.9c0.1,0.2,0.2,0.4,0.4,0.5s0.3,0.2,0.5,0.2c0.2,0,0.3,0,0.5-0.1s0.2-0.2,0.3-0.4c0.1-0.2,0.1-0.3,0.2-0.6h2.2
		c0,0.6-0.1,1.1-0.4,1.5s-0.6,0.8-1.1,1C23.5,19.3,22.9,19.4,22.3,19.4z"/>
</g>
</svg>
