<?xml version="1.0" encoding="utf-8"?>
<!-- Generator: Adobe Illustrator 26.0.0, SVG Export Plug-In . SVG Version: 6.00 Build 0)  -->
<svg version="1.1" id="Ebene_1" xmlns="http://www.w3.org/2000/svg" xmlns:xlink="http://www.w3.org/1999/xlink" x="0px" y="0px"
	 viewBox="0 0 30 30" style="enable-background:new 0 0 30 30;" xml:space="preserve">
<style type="text/css">
	.st0{fill:#111111;}
	.st1{fill:#FFFFFF;}
</style>
<g>
	<path class="st0" d="M23,15L19,7.9c-0.3-0.6-0.8-1-1.4-1.2L5.3,2.6C4.7,2.4,4,2.5,3.5,3C3.2,3.3,3,3.8,3,4.2C3,4.4,3,4.6,3,4.8
		l4.1,13c0.2,0.7,0.7,1.3,1.4,1.6l7.4,3.2c0.7,0.3,1.4,0.1,1.9-0.4l4.9-5.1C23.2,16.5,23.3,15.7,23,15z M16.7,21.4l-8.1-3.5L4.5,5
		l7.6,7.6C12,12.8,12,13.1,12,13.4c0,1.1,0.9,2,2,2c1.3,0,2.3-1.2,1.9-2.6c-0.2-0.7-0.9-1.2-1.6-1.4c-0.3,0-0.6,0-0.9,0.1L6,4.3
		l11.6,3.9l4.3,7.8L16.7,21.4z"/>
	<path class="st1" d="M21.9,15.9l-5.2,5.5l-8.1-3.5L4.5,5l7.6,7.6C12,12.8,12,13.1,12,13.4c0,1.1,0.9,2,2,2c1.3,0,2.3-1.2,1.9-2.6
		c-0.2-0.7-0.9-1.2-1.6-1.4c-0.3,0-0.6,0-0.9,0.1L6,4.3l11.6,3.9L21.9,15.9z"/>
	<path class="st0" d="M27.9,17.9l-2-1.6c-0.5-0.4-1.2-0.3-1.7,0.1L17.2,24c-0.4,0.4-0.5,1.1-0.1,1.5l1.3,2c0.4,0.7,1.4,0.8,1.9,0.2
		l7.8-7.9C28.5,19.2,28.5,18.4,27.9,17.9z"/>
</g>
</svg>
