<?xml version="1.0" encoding="utf-8"?>
<!-- Generator: Adobe Illustrator 26.0.0, SVG Export Plug-In . SVG Version: 6.00 Build 0)  -->
<svg version="1.1" id="Ebene_1" xmlns="http://www.w3.org/2000/svg" xmlns:xlink="http://www.w3.org/1999/xlink" x="0px" y="0px"
	 viewBox="0 0 30 30" style="enable-background:new 0 0 30 30;" xml:space="preserve">
<style type="text/css">
	.st0{fill:#111111;}
</style>
<g>
	<path class="st0" d="M16.7,12.5v1.4h10.8c0.4,0,0.8,0.3,0.8,0.8v12.6c0,0.4-0.3,0.8-0.8,0.8H14.9c-0.4,0-0.8-0.3-0.8-0.8V16.8h-1.3
		v11.9c0,0.4,0.3,0.8,0.8,0.8h15.3c0.4,0,0.8-0.3,0.8-0.8V13.3c0-0.4-0.3-0.8-0.8-0.8H16.7z"/>
</g>
<g>
	<path class="st0" d="M14.3,10.4h-1.5V1.5C12.8,1.2,13,1,13.3,1h0.6c0.3,0,0.5,0.2,0.5,0.5V10.4z"/>
</g>
<g>
	<path class="st0" d="M10.1,14.1l-9.3,0c-0.2,0-0.4-0.2-0.4-0.4l0-0.6c0-0.2,0.2-0.4,0.4-0.4l9.3,0L10.1,14.1z"/>
</g>
<circle class="st0" cx="13.6" cy="13.3" r="1.9"/>
</svg>
