<?xml version="1.0" encoding="utf-8"?>
<!-- Generator: Adobe Illustrator 26.0.0, SVG Export Plug-In . SVG Version: 6.00 Build 0)  -->
<svg version="1.1" id="Ebene_1" xmlns="http://www.w3.org/2000/svg" xmlns:xlink="http://www.w3.org/1999/xlink" x="0px" y="0px"
	 viewBox="0 0 30 30" style="enable-background:new 0 0 30 30;" xml:space="preserve">
<style type="text/css">
	.st0{fill:#111111;}
	.st1{fill:#FFFFFF;}
</style>
<g>
	<path class="st0" d="M7.3,26.3c-0.5,0-1-0.4-1-1V2.8c0-0.5,0.4-1,1-1c0.3,0,0.5,0.1,0.7,0.3l15.7,15.5c0.3,0.3,0.4,0.7,0.2,1.1
		c-0.2,0.4-0.5,0.6-0.9,0.6l-8.8,0L8,26C7.9,26.2,7.6,26.3,7.3,26.3z"/>
	<path class="st1" d="M24.1,17.2L8.4,1.7c-0.3-0.3-0.6-0.4-1-0.4h0c-0.8,0-1.5,0.7-1.5,1.5v22.6c0,0.8,0.7,1.5,1.5,1.5
		c0.4,0,0.8-0.2,1.1-0.5l6.1-6.6l8.5,0c0.6,0,1.1-0.4,1.4-0.9S24.5,17.7,24.1,17.2z M23.1,18.8l-8.8,0c-0.1,0-0.3,0.1-0.3,0.2
		l-6.3,6.7c-0.1,0.1-0.2,0.2-0.3,0.2c-0.2,0-0.5-0.2-0.5-0.5V2.8c0-0.3,0.2-0.5,0.5-0.5c0.1,0,0.2,0,0.3,0.1l15.7,15.5
		C23.7,18.2,23.5,18.8,23.1,18.8z"/>
</g>
</svg>
