<?xml version="1.0" encoding="utf-8"?>
<!-- Generator: Adobe Illustrator 26.0.1, SVG Export Plug-In . SVG Version: 6.00 Build 0)  -->
<svg version="1.1" id="Ebene_1" xmlns="http://www.w3.org/2000/svg" xmlns:xlink="http://www.w3.org/1999/xlink" x="0px" y="0px"
	 viewBox="0 0 30 30" style="enable-background:new 0 0 30 30;" xml:space="preserve">
<style type="text/css">
	.st0{fill:none;stroke:#000000;stroke-width:1.5;stroke-miterlimit:10;}
</style>
<path class="st0" d="M24.5,27h-19c-2.2,0-4-1.6-4-3.6V6.7c0-2,1.8-3.6,4-3.6h18.9c2.2,0,4,1.6,4,3.6v16.7C28.5,25.3,26.7,27,24.5,27
	z"/>
<g>
	<path d="M12.9,15.4c0,0,0,0.1,0,0.1c0,1.6,0,3.3,0,4.9c0,0.2-0.1,0.3-0.3,0.3c0,0-0.1,0-0.1,0c-1.7,0-3.4,0-5,0
		c-0.2,0-0.3-0.1-0.3-0.4c0-1.6,0-3.3,0-4.9c0-0.1,0-0.1-0.1-0.1c-0.8,0-1.6,0-2.4,0c-0.1,0-0.2,0-0.3-0.1c-0.2-0.1-0.2-0.4,0-0.5
		C4.7,14.6,5,14.3,5.3,14c1.1-1.1,2.3-2.3,3.4-3.4c0.4-0.4,0.7-0.7,1.1-1.1c0.1-0.1,0.3-0.1,0.4,0c1.8,1.8,3.6,3.6,5.4,5.3
		c0.1,0.1,0.1,0.2,0.1,0.3c0,0.2-0.1,0.3-0.3,0.3c-0.5,0-0.9,0-1.4,0C13.7,15.4,13.3,15.4,12.9,15.4C12.9,15.4,12.9,15.4,12.9,15.4z
		 M5.4,14.8C5.4,14.8,5.4,14.8,5.4,14.8C5.4,14.8,5.5,14.8,5.4,14.8c0.8,0,1.4,0,2.1,0c0.2,0,0.3,0.1,0.3,0.3c0,0.2,0,0.3,0,0.5
		c0,1.5,0,3,0,4.5c0,0.1,0,0.1,0.1,0.1c1.4,0,2.9,0,4.3,0c0,0,0.1,0,0.1,0c0,0,0-0.1,0-0.1c0-1.2,0-2.4,0-3.6c0-0.5,0-0.9,0-1.4
		c0-0.2,0.1-0.3,0.2-0.3c0.1,0,0.1,0,0.2,0c0.6,0,1.3,0,1.9,0c0,0,0,0,0.1,0c0,0,0,0,0,0c-1.5-1.5-3.1-3.1-4.6-4.6
		C8.5,11.7,6.9,13.3,5.4,14.8z"/>
</g>
</svg>
