<?xml version="1.0" encoding="utf-8"?>
<!-- Generator: Adobe Illustrator 26.0.3, SVG Export Plug-In . SVG Version: 6.00 Build 0)  -->
<svg version="1.1" id="Ebene_1" xmlns="http://www.w3.org/2000/svg" xmlns:xlink="http://www.w3.org/1999/xlink" x="0px" y="0px"
	 viewBox="0 0 30 30" style="enable-background:new 0 0 30 30;" xml:space="preserve">
<style type="text/css">
	.st0{fill:#111111;}
</style>
<g>
	<path class="st0" d="M1.8,14.7l0,0.6c0,0.2,0.2,0.4,0.4,0.4l9.3,0l0-1.5l-9.3,0C2,14.2,1.8,14.4,1.8,14.7z"/>
	<path class="st0" d="M15,13.1c-1,0-1.9,0.8-1.9,1.9s0.8,1.9,1.9,1.9s1.9-0.8,1.9-1.9S16,13.1,15,13.1z"/>
	<path class="st0" d="M27.8,14.3l-9.3,0l0,1.5l9.3,0c0.2,0,0.4-0.2,0.4-0.4l0-0.6C28.2,14.5,28,14.3,27.8,14.3z"/>
	<path class="st0" d="M14.2,27.8c0,0.2,0.2,0.4,0.4,0.4l0.6,0c0.2,0,0.4-0.2,0.4-0.4l0-9.3l-1.5,0L14.2,27.8z"/>
	<path class="st0" d="M15.8,2.2c0-0.2-0.2-0.4-0.4-0.4l-0.6,0c-0.2,0-0.4,0.2-0.4,0.4l0,9.3l1.5,0L15.8,2.2z"/>
	<path class="st0" d="M28.2,2.2c0-0.2-0.2-0.4-0.4-0.4l-0.6,0c0,0-0.1,0-0.1,0l-8.6,0l0,1.5l8.3,0l0,8.3l1.5,0L28.2,2.2L28.2,2.2
		C28.2,2.2,28.2,2.2,28.2,2.2L28.2,2.2z"/>
	<path class="st0" d="M2.2,1.7C2.2,1.7,2.2,1.7,2.2,1.7L2.2,1.7C2,1.7,1.8,1.9,1.8,2.2l0,0.6c0,0,0,0.1,0,0.1l0,8.6l1.5,0l0-8.3
		l8.3,0l0-1.5L2.2,1.7L2.2,1.7z"/>
	<path class="st0" d="M3.3,18.5l-1.5,0l0,9.3l0,0c0,0,0,0,0,0l0,0c0,0.2,0.2,0.4,0.4,0.4l0.6,0c0,0,0.1,0,0.1,0l8.6,0l0-1.5l-8.3,0
		L3.3,18.5z"/>
	<path class="st0" d="M26.7,18.5l0,8.3l-8.3,0l0,1.5l9.3,0l0,0c0,0,0,0,0,0l0,0c0.2,0,0.4-0.2,0.4-0.4l0-0.6c0,0,0-0.1,0-0.1l0-8.6
		L26.7,18.5z"/>
</g>
</svg>
