<?xml version="1.0" encoding="utf-8"?>
<!-- Generator: Adobe Illustrator 26.0.1, SVG Export Plug-In . SVG Version: 6.00 Build 0)  -->
<svg version="1.1" id="Ebene_1" xmlns="http://www.w3.org/2000/svg" xmlns:xlink="http://www.w3.org/1999/xlink" x="0px" y="0px"
	 viewBox="0 0 30 30" style="enable-background:new 0 0 30 30;" xml:space="preserve">
<style type="text/css">
	.st0{fill:none;stroke:#000000;stroke-width:1.5;stroke-miterlimit:10;}
</style>
<path class="st0" d="M24.5,27h-19c-2.2,0-4-1.6-4-3.6V6.7c0-2,1.8-3.6,4-3.6h18.9c2.2,0,4,1.6,4,3.6v16.7C28.5,25.3,26.7,27,24.5,27
	z"/>
<path d="M19.4,16.2h-1.5v-2.5h1.5c1.8,0,3.2-1.4,3.2-3.2c0-1.7-1.4-3.2-3.2-3.2c-1.7,0-3.2,1.4-3.2,3.2v1.5h-2.5v-1.5
	c0-1.7-1.4-3.2-3.2-3.2c-1.8,0-3.2,1.4-3.2,3.2c0,1.8,1.4,3.2,3.2,3.2h1.5v2.5h-1.5c-1.8,0-3.2,1.4-3.2,3.2c0,1.8,1.4,3.2,3.2,3.2
	c1.7,0,3.2-1.4,3.2-3.2v-1.5h2.5v1.5c0,1.8,1.4,3.2,3.2,3.2c1.8,0,3.2-1.4,3.2-3.2C22.6,17.7,21.2,16.2,19.4,16.2z M17.9,10.6
	c0-0.8,0.7-1.5,1.5-1.5c0.8,0,1.5,0.7,1.5,1.5c0,0.8-0.7,1.5-1.5,1.5h-1.5V10.6z M12.1,19.4c0,0.8-0.7,1.5-1.5,1.5
	c-0.8,0-1.5-0.7-1.5-1.5c0-0.4,0.2-0.8,0.4-1c0.3-0.3,0.6-0.4,1.1-0.4h1.5V19.4z M12.1,12.1h-1.5c-0.8,0-1.5-0.7-1.5-1.5
	c0-0.8,0.7-1.5,1.5-1.5c0.8,0,1.5,0.7,1.5,1.5V12.1z M16.2,16.2h-2.5v-2.5h2.5V16.2z M19.4,20.9c-0.8,0-1.5-0.7-1.5-1.5v-1.5h1.5
	c0.8,0,1.5,0.7,1.5,1.5C20.9,20.2,20.2,20.9,19.4,20.9z"/>
</svg>
