<?xml version="1.0" encoding="utf-8"?>
<!-- Generator: Adobe Illustrator 26.0.0, SVG Export Plug-In . SVG Version: 6.00 Build 0)  -->
<svg version="1.1" id="Ebene_1" xmlns="http://www.w3.org/2000/svg" xmlns:xlink="http://www.w3.org/1999/xlink" x="0px" y="0px"
	 viewBox="0 0 30 30" style="enable-background:new 0 0 30 30;" xml:space="preserve">
<style type="text/css">
	.st0{fill:none;stroke:#000000;stroke-width:1.5;stroke-miterlimit:10;}
</style>
<path class="st0" d="M24.5,27H5.5c-2.2,0-4-1.6-4-3.6V6.7c0-2,1.8-3.6,4-3.6h18.9c2.2,0,4,1.6,4,3.6v16.7C28.5,25.3,26.7,27,24.5,27
	z"/>
<g>
	<path d="M11.4,11.1c-0.7-0.3-1.4-0.5-2.3-0.5H5.8v8.7h3.4c0.9,0,1.7-0.2,2.3-0.5c0.7-0.3,1.2-0.8,1.5-1.5c0.4-0.7,0.5-1.4,0.5-2.3
		c0-0.9-0.2-1.7-0.5-2.3C12.6,11.9,12.1,11.4,11.4,11.1z M10.8,16.4c-0.2,0.3-0.4,0.6-0.7,0.7c-0.3,0.1-0.7,0.2-1.1,0.2H8.1v-4.7H9
		c0.5,0,0.8,0.1,1.2,0.2c0.3,0.1,0.6,0.4,0.7,0.7c0.2,0.3,0.2,0.8,0.2,1.4S11,16,10.8,16.4z"/>
	<path d="M20,13.6c-0.3-0.3-0.6-0.5-1-0.7c-0.4-0.2-0.8-0.2-1.3-0.2c-0.7,0-1.3,0.1-1.8,0.4s-0.9,0.7-1.2,1.2
		c-0.3,0.5-0.4,1.1-0.4,1.8c0,0.7,0.1,1.3,0.4,1.8c0.3,0.5,0.7,0.9,1.2,1.2s1.1,0.4,1.8,0.4c0.6,0,1.1-0.1,1.6-0.3s0.8-0.4,1.1-0.8
		s0.5-0.7,0.5-1.2h-2.1c0,0.1-0.1,0.2-0.2,0.3c-0.1,0.1-0.2,0.2-0.3,0.2c-0.1,0-0.3,0.1-0.4,0.1c-0.2,0-0.4,0-0.6-0.1
		c-0.2-0.1-0.3-0.2-0.4-0.4c-0.1-0.2-0.1-0.4-0.1-0.6v-0.1h4.3V16c0-0.5-0.1-1-0.2-1.4C20.5,14.2,20.3,13.9,20,13.6z M16.7,15.3
		c0-0.2,0.1-0.4,0.2-0.5c0.1-0.1,0.2-0.3,0.4-0.3c0.2-0.1,0.3-0.1,0.5-0.1c0.2,0,0.4,0,0.5,0.1c0.2,0.1,0.3,0.2,0.4,0.3
		c0.1,0.1,0.1,0.3,0.1,0.5H16.7z"/>
	<rect x="21.9" y="10.6" width="2.4" height="8.7"/>
</g>
</svg>
