<?xml version="1.0" encoding="utf-8"?>
<!-- Generator: Adobe Illustrator 26.0.0, SVG Export Plug-In . SVG Version: 6.00 Build 0)  -->
<svg version="1.1" id="Ebene_1" xmlns="http://www.w3.org/2000/svg" xmlns:xlink="http://www.w3.org/1999/xlink" x="0px" y="0px"
	 viewBox="0 0 30 30" style="enable-background:new 0 0 30 30;" xml:space="preserve">
<style type="text/css">
	.st0{fill:none;stroke:#000000;stroke-width:1.5;stroke-miterlimit:10;}
</style>
<path class="st0" d="M24.5,27H5.5c-2.2,0-4-1.6-4-3.6V6.7c0-2,1.8-3.6,4-3.6h18.9c2.2,0,4,1.6,4,3.6v16.7C28.5,25.3,26.7,27,24.5,27
	z"/>
<path d="M16.1,19.4h2.6l-1.8-3.3c0.5-0.2,0.8-0.5,1.1-0.9c0.3-0.4,0.4-1,0.4-1.6c0-0.6-0.1-1.2-0.4-1.6c-0.3-0.4-0.6-0.8-1.1-1
	c-0.5-0.2-1.1-0.4-1.7-0.4h-3.8v8.7h2.4v-2.9h0.8L16.1,19.4z M13.7,12.5h0.8c0.3,0,0.5,0,0.7,0.1c0.2,0.1,0.3,0.2,0.5,0.3
	c0.1,0.2,0.2,0.4,0.2,0.6c0,0.2-0.1,0.4-0.2,0.6s-0.3,0.3-0.5,0.3c-0.2,0.1-0.4,0.1-0.7,0.1h-0.8V12.5z"/>
</svg>
