<?xml version="1.0" encoding="utf-8"?>
<!-- Generator: Adobe Illustrator 26.0.0, SVG Export Plug-In . SVG Version: 6.00 Build 0)  -->
<svg version="1.1" id="Ebene_1" xmlns="http://www.w3.org/2000/svg" xmlns:xlink="http://www.w3.org/1999/xlink" x="0px" y="0px"
	 viewBox="0 0 30 30" style="enable-background:new 0 0 30 30;" xml:space="preserve">
<style type="text/css">
	.st0{fill:none;stroke:#000000;stroke-width:1.5;stroke-miterlimit:10;}
	.st1{fill:#FFFFFF;}
</style>
<path class="st0" d="M24.5,27H5.5c-2.2,0-4-1.6-4-3.6V6.7c0-2,1.8-3.6,4-3.6h18.9c2.2,0,4,1.6,4,3.6v16.7C28.5,25.3,26.7,27,24.5,27
	z"/>
<g>
	<path class="st1" d="M18.2,10.8c-3.1,0-6.2,0-9.3,0c-0.3-0.1-0.6,0.2-0.6,0.3c0.1,0.2,0.3,0.4,0.6,0.4c3.1,0,6.2,0,9.3,0
		c0,0.9,0,1.8,0,2.7c0,0,0.1,0,0.1,0.1c0.9-0.9,1.8-1.8,2.7-2.7c0,1,0,1.8,0,2.7c0,0.2,0,0.4,0.3,0.4c0.3,0,0.3-0.2,0.3-0.4
		c0-1.9,0-3.9,0-5.8c0-0.2,0-0.4-0.3-0.4c-0.2,0-0.3,0.2-0.3,0.4c0,0.8,0,1.6,0,2.5c-0.9-0.9-1.8-1.7-2.8-2.6
		C18.2,9.2,18.2,10,18.2,10.8z M11.7,21.6C11.7,21.6,11.7,21.6,11.7,21.6c0.1-0.9,0.1-1.8,0.1-2.7c3.1,0,6.2,0,9.3,0
		c0.1,0,0.2,0,0.3,0c0.1-0.1,0.2-0.2,0.2-0.3c-0.1-0.2-0.3-0.4-0.5-0.3c-3.1,0-6.2,0-9.3,0c0-0.9,0-1.8,0-2.7c0,0-0.1,0-0.1-0.1
		c-0.9,0.9-1.8,1.8-2.7,2.7c0-1,0-1.9,0-2.8c0-0.2-0.1-0.4-0.3-0.3c-0.1,0-0.2,0.2-0.3,0.3c0,0.1,0,0.2,0,0.2c0,2,0,4,0,6
		c0.1,0.4,0.6,0.5,0.6,0c0-1,0-1.9,0-2.9C9.9,19.8,10.8,20.7,11.7,21.6z"/>
	<path d="M18.2,10.8c0-0.9,0-1.7,0-2.6c1,0.9,1.8,1.7,2.8,2.6c0.1-0.8,0-1.6,0-2.5c0-0.2,0.1-0.4,0.3-0.4c0.2,0,0.3,0.2,0.3,0.4
		c0,1.9,0,3.9,0,5.8c0,0.2,0,0.4-0.3,0.4c-0.3,0-0.3-0.2-0.3-0.4c0-0.9,0-1.8,0-2.7c-0.9,0.9-1.8,1.8-2.7,2.7c0,0-0.1,0-0.1-0.1
		c0-0.9,0-1.8,0-2.7c-3.1,0-6.2,0-9.3,0c-0.3,0.1-0.5-0.1-0.6-0.4c0-0.1,0.2-0.2,0.3-0.3c0.1,0,0.2,0,0.3,0
		C12.1,10.8,15.2,10.8,18.2,10.8z"/>
	<path d="M11.7,21.6c-0.9-0.9-1.8-1.8-2.7-2.7c0,1,0,1.9,0,2.9c0,0.5-0.5,0.4-0.6,0c0-2.1,0-4.2,0-6.3c0.1-0.1,0.2-0.3,0.3-0.3
		c0.2,0,0.3,0.1,0.3,0.3c0,0.9,0,1.9,0,2.8c0.9-0.9,1.8-1.8,2.7-2.7c0,0,0.1,0,0.1,0.1c0,0.9,0,1.8,0,2.7c3.1,0,6.2,0,9.3,0
		c0.2-0.1,0.4,0.1,0.5,0.3c0,0.1-0.1,0.2-0.2,0.3c-0.1,0-0.2,0-0.3,0c-3.1,0-6.2,0-9.3,0C11.8,19.8,11.8,20.7,11.7,21.6
		C11.7,21.6,11.7,21.6,11.7,21.6z"/>
</g>
</svg>
